%TF.GenerationSoftware,KiCad,Pcbnew,9.0.1-9.0.1-0~ubuntu24.04.1*%
%TF.CreationDate,2025-04-28T14:38:03+02:00*%
%TF.ProjectId,build_a_kicad_project_schematic,6275696c-645f-4615-9f6b-696361645f70,rev?*%
%TF.SameCoordinates,Original*%
%TF.FileFunction,Copper,L1,Top*%
%TF.FilePolarity,Positive*%
%FSLAX46Y46*%
G04 Gerber Fmt 4.6, Leading zero omitted, Abs format (unit mm)*
G04 Created by KiCad (PCBNEW 9.0.1-9.0.1-0~ubuntu24.04.1) date 2025-04-28 14:38:03*
%MOMM*%
%LPD*%
G01*
G04 APERTURE LIST*
G04 Aperture macros list*
%AMRoundRect*
0 Rectangle with rounded corners*
0 $1 Rounding radius*
0 $2 $3 $4 $5 $6 $7 $8 $9 X,Y pos of 4 corners*
0 Add a 4 corners polygon primitive as box body*
4,1,4,$2,$3,$4,$5,$6,$7,$8,$9,$2,$3,0*
0 Add four circle primitives for the rounded corners*
1,1,$1+$1,$2,$3*
1,1,$1+$1,$4,$5*
1,1,$1+$1,$6,$7*
1,1,$1+$1,$8,$9*
0 Add four rect primitives between the rounded corners*
20,1,$1+$1,$2,$3,$4,$5,0*
20,1,$1+$1,$4,$5,$6,$7,0*
20,1,$1+$1,$6,$7,$8,$9,0*
20,1,$1+$1,$8,$9,$2,$3,0*%
G04 Aperture macros list end*
%TA.AperFunction,ComponentPad*%
%ADD10RoundRect,0.381000X-0.889000X-0.889000X0.889000X-0.889000X0.889000X0.889000X-0.889000X0.889000X0*%
%TD*%
%TA.AperFunction,ComponentPad*%
%ADD11C,2.540000*%
%TD*%
%TA.AperFunction,ComponentPad*%
%ADD12R,1.800000X1.800000*%
%TD*%
%TA.AperFunction,ComponentPad*%
%ADD13C,1.800000*%
%TD*%
%TA.AperFunction,ComponentPad*%
%ADD14RoundRect,0.190500X-0.444500X-0.444500X0.444500X-0.444500X0.444500X0.444500X-0.444500X0.444500X0*%
%TD*%
%TA.AperFunction,ComponentPad*%
%ADD15C,1.270000*%
%TD*%
%TA.AperFunction,ComponentPad*%
%ADD16C,2.000000*%
%TD*%
%TA.AperFunction,ComponentPad*%
%ADD17C,2.400000*%
%TD*%
%TA.AperFunction,ComponentPad*%
%ADD18O,2.400000X2.400000*%
%TD*%
%TA.AperFunction,ComponentPad*%
%ADD19C,1.600000*%
%TD*%
%TA.AperFunction,ComponentPad*%
%ADD20R,1.600000X1.600000*%
%TD*%
%TA.AperFunction,ComponentPad*%
%ADD21O,1.600000X1.600000*%
%TD*%
%TA.AperFunction,ViaPad*%
%ADD22C,0.700000*%
%TD*%
%TA.AperFunction,Conductor*%
%ADD23C,0.450000*%
%TD*%
%TA.AperFunction,Conductor*%
%ADD24C,0.400000*%
%TD*%
%TA.AperFunction,Conductor*%
%ADD25C,0.200000*%
%TD*%
G04 APERTURE END LIST*
D10*
%TO.P,U2,1,GND*%
%TO.N,GND*%
X120880000Y-71070000D03*
D11*
%TO.P,U2,2,VCC*%
%TO.N,+5V*%
X125960000Y-71070000D03*
%TO.P,U2,3,SCL*%
%TO.N,Net-(A1-A5)*%
X131040000Y-71070000D03*
%TO.P,U2,4,SDA*%
%TO.N,Net-(A1-A4)*%
X136120000Y-71070000D03*
%TD*%
D12*
%TO.P,D1,1,K*%
%TO.N,GND*%
X185460000Y-75500000D03*
D13*
%TO.P,D1,2,A*%
%TO.N,Net-(D1-A)*%
X188000000Y-75500000D03*
%TD*%
D14*
%TO.P,U1,1,INT*%
%TO.N,unconnected-(U1-INT-Pad1)*%
X116420000Y-102920000D03*
D15*
%TO.P,U1,2,SDA*%
%TO.N,Net-(A1-A4)*%
X118960000Y-102920000D03*
%TO.P,U1,3,SCL*%
%TO.N,Net-(A1-A5)*%
X121500000Y-102920000D03*
%TO.P,U1,4,GND*%
%TO.N,GND*%
X124040000Y-102920000D03*
%TO.P,U1,5,VCC*%
%TO.N,+5V*%
X126580000Y-102920000D03*
%TD*%
D16*
%TO.P,UP,1,1*%
%TO.N,GND*%
X188000000Y-94000000D03*
X188000000Y-100500000D03*
%TO.P,UP,2,2*%
%TO.N,Net-(A1-D3)*%
X183500000Y-94000000D03*
X183500000Y-100500000D03*
%TD*%
D17*
%TO.P,R3,1*%
%TO.N,+5V*%
X177000000Y-106000000D03*
D18*
%TO.P,R3,2*%
%TO.N,Net-(A1-D4)*%
X177000000Y-111080000D03*
%TD*%
D17*
%TO.P,R2,1*%
%TO.N,+5V*%
X177000000Y-94760000D03*
D18*
%TO.P,R2,2*%
%TO.N,Net-(A1-D3)*%
X177000000Y-99840000D03*
%TD*%
D16*
%TO.P,DOWN,1,1*%
%TO.N,GND*%
X188250000Y-105240000D03*
X188250000Y-111740000D03*
%TO.P,DOWN,2,2*%
%TO.N,Net-(A1-D4)*%
X183750000Y-105240000D03*
X183750000Y-111740000D03*
%TD*%
D19*
%TO.P,C2,1*%
%TO.N,Net-(A1-D3)*%
X171000000Y-99000000D03*
%TO.P,C2,2*%
%TO.N,GND*%
X171000000Y-101500000D03*
%TD*%
D16*
%TO.P,MENU,1,1*%
%TO.N,GND*%
X188000000Y-83500000D03*
X188000000Y-90000000D03*
%TO.P,MENU,2,2*%
%TO.N,Net-(A1-D2)*%
X183500000Y-83500000D03*
X183500000Y-90000000D03*
%TD*%
D17*
%TO.P,R1,1*%
%TO.N,+5V*%
X177000000Y-84760000D03*
D18*
%TO.P,R1,2*%
%TO.N,Net-(A1-D2)*%
X177000000Y-89840000D03*
%TD*%
D20*
%TO.P,A1,1,D1/TX*%
%TO.N,unconnected-(A1-D1{slash}TX-Pad1)*%
X163000000Y-111000000D03*
D21*
%TO.P,A1,2,D0/RX*%
%TO.N,unconnected-(A1-D0{slash}RX-Pad2)*%
X163000000Y-108460000D03*
%TO.P,A1,3,~{RESET}*%
%TO.N,unconnected-(A1-~{RESET}-Pad3)*%
X163000000Y-105920000D03*
%TO.P,A1,4,GND*%
%TO.N,GND*%
X163000000Y-103380000D03*
%TO.P,A1,5,D2*%
%TO.N,Net-(A1-D2)*%
X163000000Y-100840000D03*
%TO.P,A1,6,D3*%
%TO.N,Net-(A1-D3)*%
X163000000Y-98300000D03*
%TO.P,A1,7,D4*%
%TO.N,Net-(A1-D4)*%
X163000000Y-95760000D03*
%TO.P,A1,8,D5*%
%TO.N,unconnected-(A1-D5-Pad8)*%
X163000000Y-93220000D03*
%TO.P,A1,9,D6*%
%TO.N,unconnected-(A1-D6-Pad9)*%
X163000000Y-90680000D03*
%TO.P,A1,10,D7*%
%TO.N,unconnected-(A1-D7-Pad10)*%
X163000000Y-88140000D03*
%TO.P,A1,11,D8*%
%TO.N,unconnected-(A1-D8-Pad11)*%
X163000000Y-85600000D03*
%TO.P,A1,12,D9*%
%TO.N,unconnected-(A1-D9-Pad12)*%
X163000000Y-83060000D03*
%TO.P,A1,13,D10*%
%TO.N,unconnected-(A1-D10-Pad13)*%
X163000000Y-80520000D03*
%TO.P,A1,14,D11*%
%TO.N,unconnected-(A1-D11-Pad14)*%
X163000000Y-77980000D03*
%TO.P,A1,15,D12*%
%TO.N,Net-(A1-D12)*%
X163000000Y-75440000D03*
%TO.P,A1,16,D13*%
%TO.N,unconnected-(A1-D13-Pad16)*%
X147760000Y-75440000D03*
%TO.P,A1,17,3V3*%
%TO.N,unconnected-(A1-3V3-Pad17)*%
X147760000Y-77980000D03*
%TO.P,A1,18,AREF*%
%TO.N,unconnected-(A1-AREF-Pad18)*%
X147760000Y-80520000D03*
%TO.P,A1,19,A0*%
%TO.N,unconnected-(A1-A0-Pad19)*%
X147760000Y-83060000D03*
%TO.P,A1,20,A1*%
%TO.N,unconnected-(A1-A1-Pad20)*%
X147760000Y-85600000D03*
%TO.P,A1,21,A2*%
%TO.N,unconnected-(A1-A2-Pad21)*%
X147760000Y-88140000D03*
%TO.P,A1,22,A3*%
%TO.N,unconnected-(A1-A3-Pad22)*%
X147760000Y-90680000D03*
%TO.P,A1,23,A4*%
%TO.N,Net-(A1-A4)*%
X147760000Y-93220000D03*
%TO.P,A1,24,A5*%
%TO.N,Net-(A1-A5)*%
X147760000Y-95760000D03*
%TO.P,A1,25,A6*%
%TO.N,unconnected-(A1-A6-Pad25)*%
X147760000Y-98300000D03*
%TO.P,A1,26,A7*%
%TO.N,unconnected-(A1-A7-Pad26)*%
X147760000Y-100840000D03*
%TO.P,A1,27,+5V*%
%TO.N,+5V*%
X147760000Y-103380000D03*
%TO.P,A1,28,~{RESET}*%
%TO.N,unconnected-(A1-~{RESET}-Pad28)*%
X147760000Y-105920000D03*
%TO.P,A1,29,GND*%
%TO.N,GND*%
X147760000Y-108460000D03*
%TO.P,A1,30,VIN*%
%TO.N,unconnected-(A1-VIN-Pad30)*%
X147760000Y-111000000D03*
%TD*%
D19*
%TO.P,C1,1*%
%TO.N,Net-(A1-D2)*%
X171000000Y-90500000D03*
%TO.P,C1,2*%
%TO.N,GND*%
X171000000Y-93000000D03*
%TD*%
%TO.P,C3,1*%
%TO.N,Net-(A1-D4)*%
X171000000Y-113000000D03*
%TO.P,C3,2*%
%TO.N,GND*%
X171000000Y-110500000D03*
%TD*%
D17*
%TO.P,R4,1*%
%TO.N,Net-(A1-D12)*%
X173500000Y-75500000D03*
D18*
%TO.P,R4,2*%
%TO.N,Net-(D1-A)*%
X178580000Y-75500000D03*
%TD*%
D22*
%TO.N,Net-(A1-A4)*%
X136100000Y-93200000D03*
%TO.N,Net-(A1-A5)*%
X131100000Y-95800000D03*
%TO.N,Net-(A1-D4)*%
X168050000Y-95700000D03*
%TO.N,Net-(A1-D2)*%
X168700000Y-100800000D03*
%TD*%
D23*
%TO.N,Net-(A1-A5)*%
X131100000Y-95800000D02*
X128620000Y-95800000D01*
X128620000Y-95800000D02*
X121500000Y-102920000D01*
D24*
X131100000Y-95800000D02*
X131140000Y-95760000D01*
X131140000Y-95760000D02*
X147760000Y-95760000D01*
D23*
%TO.N,Net-(A1-A4)*%
X128680000Y-93200000D02*
X118960000Y-102920000D01*
D24*
X136100000Y-93200000D02*
X136120000Y-93220000D01*
X136120000Y-93220000D02*
X147760000Y-93220000D01*
D23*
X136100000Y-93200000D02*
X128680000Y-93200000D01*
D25*
%TO.N,Net-(A1-D4)*%
X177000000Y-111080000D02*
X183090000Y-111080000D01*
X175080000Y-113000000D02*
X177000000Y-111080000D01*
X183090000Y-111080000D02*
X183750000Y-111740000D01*
X167990000Y-95760000D02*
X168050000Y-95700000D01*
X171000000Y-113000000D02*
X175080000Y-113000000D01*
X163000000Y-95760000D02*
X167990000Y-95760000D01*
D24*
%TO.N,+5V*%
X127040000Y-103380000D02*
X126580000Y-102920000D01*
D25*
X175800000Y-107200000D02*
X151580000Y-107200000D01*
X151580000Y-107200000D02*
X147760000Y-103380000D01*
D24*
X147760000Y-103380000D02*
X127040000Y-103380000D01*
D25*
X177000000Y-106000000D02*
X175800000Y-107200000D01*
%TO.N,Net-(A1-D3)*%
X182840000Y-99840000D02*
X183500000Y-100500000D01*
X163700000Y-99000000D02*
X163000000Y-98300000D01*
X171000000Y-99000000D02*
X163700000Y-99000000D01*
X171000000Y-99000000D02*
X176160000Y-99000000D01*
X177000000Y-99840000D02*
X182840000Y-99840000D01*
X176160000Y-99000000D02*
X177000000Y-99840000D01*
%TO.N,Net-(A1-D12)*%
X163000000Y-75440000D02*
X173440000Y-75440000D01*
X173440000Y-75440000D02*
X173500000Y-75500000D01*
%TO.N,Net-(A1-D2)*%
X168660000Y-100840000D02*
X168700000Y-100800000D01*
X177000000Y-89840000D02*
X183340000Y-89840000D01*
X171000000Y-90500000D02*
X176340000Y-90500000D01*
X163000000Y-100840000D02*
X168660000Y-100840000D01*
X183340000Y-89840000D02*
X183500000Y-90000000D01*
X176340000Y-90500000D02*
X177000000Y-89840000D01*
%TO.N,Net-(D1-A)*%
X178580000Y-75500000D02*
X179781000Y-76701000D01*
X179781000Y-76701000D02*
X186799000Y-76701000D01*
X186799000Y-76701000D02*
X188000000Y-75500000D01*
%TD*%
%TA.AperFunction,Conductor*%
%TO.N,GND*%
G36*
X192642539Y-67320185D02*
G01*
X192688294Y-67372989D01*
X192699500Y-67424500D01*
X192699500Y-118575500D01*
X192679815Y-118642539D01*
X192627011Y-118688294D01*
X192575500Y-118699500D01*
X113424500Y-118699500D01*
X113357461Y-118679815D01*
X113311706Y-118627011D01*
X113300500Y-118575500D01*
X113300500Y-112897648D01*
X169699500Y-112897648D01*
X169699500Y-113102351D01*
X169731522Y-113304534D01*
X169794781Y-113499223D01*
X169887715Y-113681613D01*
X170008028Y-113847213D01*
X170152786Y-113991971D01*
X170307749Y-114104556D01*
X170318390Y-114112287D01*
X170434607Y-114171503D01*
X170500776Y-114205218D01*
X170500778Y-114205218D01*
X170500781Y-114205220D01*
X170605137Y-114239127D01*
X170695465Y-114268477D01*
X170796557Y-114284488D01*
X170897648Y-114300500D01*
X170897649Y-114300500D01*
X171102351Y-114300500D01*
X171102352Y-114300500D01*
X171304534Y-114268477D01*
X171499219Y-114205220D01*
X171681610Y-114112287D01*
X171774590Y-114044732D01*
X171847213Y-113991971D01*
X171847215Y-113991968D01*
X171847219Y-113991966D01*
X171991966Y-113847219D01*
X171991968Y-113847215D01*
X171991971Y-113847213D01*
X172112284Y-113681614D01*
X172112285Y-113681613D01*
X172112287Y-113681610D01*
X172119117Y-113668204D01*
X172167091Y-113617409D01*
X172229602Y-113600500D01*
X174993331Y-113600500D01*
X174993347Y-113600501D01*
X175000943Y-113600501D01*
X175159054Y-113600501D01*
X175159057Y-113600501D01*
X175311785Y-113559577D01*
X175361904Y-113530639D01*
X175448716Y-113480520D01*
X175560520Y-113368716D01*
X175560520Y-113368714D01*
X175570728Y-113358507D01*
X175570730Y-113358504D01*
X176240407Y-112688826D01*
X176301728Y-112655343D01*
X176371420Y-112660327D01*
X176375539Y-112661948D01*
X176404588Y-112673980D01*
X176452219Y-112693710D01*
X176667537Y-112751404D01*
X176888543Y-112780500D01*
X176888550Y-112780500D01*
X177111450Y-112780500D01*
X177111457Y-112780500D01*
X177332463Y-112751404D01*
X177547781Y-112693710D01*
X177753726Y-112608405D01*
X177946774Y-112496948D01*
X178123624Y-112361247D01*
X178281247Y-112203624D01*
X178416948Y-112026774D01*
X178528405Y-111833726D01*
X178533609Y-111821164D01*
X178560166Y-111757048D01*
X178604006Y-111702644D01*
X178670300Y-111680579D01*
X178674727Y-111680500D01*
X182125500Y-111680500D01*
X182192539Y-111700185D01*
X182238294Y-111752989D01*
X182249500Y-111804500D01*
X182249500Y-111858097D01*
X182286446Y-112091368D01*
X182359433Y-112315996D01*
X182391951Y-112379815D01*
X182466657Y-112526433D01*
X182605483Y-112717510D01*
X182772490Y-112884517D01*
X182963567Y-113023343D01*
X183062991Y-113074002D01*
X183174003Y-113130566D01*
X183174005Y-113130566D01*
X183174008Y-113130568D01*
X183294412Y-113169689D01*
X183398631Y-113203553D01*
X183631903Y-113240500D01*
X183631908Y-113240500D01*
X183868097Y-113240500D01*
X184101368Y-113203553D01*
X184102870Y-113203065D01*
X184325992Y-113130568D01*
X184536433Y-113023343D01*
X184727510Y-112884517D01*
X184894517Y-112717510D01*
X185033343Y-112526433D01*
X185140568Y-112315992D01*
X185213553Y-112091368D01*
X185221320Y-112042328D01*
X185250500Y-111858097D01*
X185250500Y-111621947D01*
X186750000Y-111621947D01*
X186750000Y-111858052D01*
X186786934Y-112091247D01*
X186859897Y-112315802D01*
X186967087Y-112526174D01*
X187027338Y-112609104D01*
X187027340Y-112609105D01*
X187726212Y-111910233D01*
X187737482Y-111952292D01*
X187809890Y-112077708D01*
X187912292Y-112180110D01*
X188037708Y-112252518D01*
X188079765Y-112263787D01*
X187380893Y-112962658D01*
X187463828Y-113022914D01*
X187674197Y-113130102D01*
X187898752Y-113203065D01*
X187898751Y-113203065D01*
X188131948Y-113240000D01*
X188368052Y-113240000D01*
X188601247Y-113203065D01*
X188825802Y-113130102D01*
X189036163Y-113022918D01*
X189036169Y-113022914D01*
X189119104Y-112962658D01*
X189119105Y-112962658D01*
X188420233Y-112263787D01*
X188462292Y-112252518D01*
X188587708Y-112180110D01*
X188690110Y-112077708D01*
X188762518Y-111952292D01*
X188773787Y-111910234D01*
X189472658Y-112609105D01*
X189472658Y-112609104D01*
X189532914Y-112526169D01*
X189532918Y-112526163D01*
X189640102Y-112315802D01*
X189713065Y-112091247D01*
X189750000Y-111858052D01*
X189750000Y-111621947D01*
X189713065Y-111388752D01*
X189640102Y-111164197D01*
X189532914Y-110953828D01*
X189472658Y-110870894D01*
X189472658Y-110870893D01*
X188773787Y-111569765D01*
X188762518Y-111527708D01*
X188690110Y-111402292D01*
X188587708Y-111299890D01*
X188462292Y-111227482D01*
X188420234Y-111216212D01*
X189119105Y-110517340D01*
X189119104Y-110517338D01*
X189036174Y-110457087D01*
X188825802Y-110349897D01*
X188601247Y-110276934D01*
X188601248Y-110276934D01*
X188368052Y-110240000D01*
X188131948Y-110240000D01*
X187898752Y-110276934D01*
X187674197Y-110349897D01*
X187463830Y-110457084D01*
X187380894Y-110517340D01*
X188079766Y-111216212D01*
X188037708Y-111227482D01*
X187912292Y-111299890D01*
X187809890Y-111402292D01*
X187737482Y-111527708D01*
X187726212Y-111569766D01*
X187027340Y-110870894D01*
X186967084Y-110953830D01*
X186859897Y-111164197D01*
X186786934Y-111388752D01*
X186750000Y-111621947D01*
X185250500Y-111621947D01*
X185250500Y-111621902D01*
X185213553Y-111388631D01*
X185160685Y-111225921D01*
X185140568Y-111164008D01*
X185140566Y-111164005D01*
X185140566Y-111164003D01*
X185056508Y-110999031D01*
X185033343Y-110953567D01*
X184894517Y-110762490D01*
X184727510Y-110595483D01*
X184536433Y-110456657D01*
X184536431Y-110456656D01*
X184325996Y-110349433D01*
X184101368Y-110276446D01*
X183868097Y-110239500D01*
X183868092Y-110239500D01*
X183631908Y-110239500D01*
X183631903Y-110239500D01*
X183398631Y-110276446D01*
X183174003Y-110349433D01*
X182963568Y-110456656D01*
X182959418Y-110459200D01*
X182958668Y-110457977D01*
X182898920Y-110479298D01*
X182891837Y-110479500D01*
X178674727Y-110479500D01*
X178607688Y-110459815D01*
X178561933Y-110407011D01*
X178560166Y-110402952D01*
X178528409Y-110326282D01*
X178528404Y-110326273D01*
X178523853Y-110318390D01*
X178416948Y-110133226D01*
X178320881Y-110008028D01*
X178281248Y-109956377D01*
X178281242Y-109956370D01*
X178123629Y-109798757D01*
X178123622Y-109798751D01*
X177946782Y-109663058D01*
X177946780Y-109663057D01*
X177946774Y-109663052D01*
X177753726Y-109551595D01*
X177753722Y-109551593D01*
X177547790Y-109466293D01*
X177547783Y-109466291D01*
X177547781Y-109466290D01*
X177332463Y-109408596D01*
X177332457Y-109408595D01*
X177332452Y-109408594D01*
X177111466Y-109379501D01*
X177111463Y-109379500D01*
X177111457Y-109379500D01*
X176888543Y-109379500D01*
X176888537Y-109379500D01*
X176888533Y-109379501D01*
X176667547Y-109408594D01*
X176667540Y-109408595D01*
X176667537Y-109408596D01*
X176623025Y-109420523D01*
X176452219Y-109466290D01*
X176452209Y-109466293D01*
X176246277Y-109551593D01*
X176246273Y-109551595D01*
X176053226Y-109663052D01*
X176053217Y-109663058D01*
X175876377Y-109798751D01*
X175876370Y-109798757D01*
X175718757Y-109956370D01*
X175718751Y-109956377D01*
X175583058Y-110133217D01*
X175583052Y-110133226D01*
X175471595Y-110326273D01*
X175471593Y-110326277D01*
X175386293Y-110532209D01*
X175386290Y-110532219D01*
X175329114Y-110745606D01*
X175328597Y-110747534D01*
X175328594Y-110747547D01*
X175299501Y-110968533D01*
X175299500Y-110968549D01*
X175299500Y-111191450D01*
X175299501Y-111191466D01*
X175328594Y-111412452D01*
X175328595Y-111412457D01*
X175328596Y-111412463D01*
X175328597Y-111412465D01*
X175386290Y-111627781D01*
X175418051Y-111704459D01*
X175425520Y-111773928D01*
X175394245Y-111836407D01*
X175391171Y-111839592D01*
X174867584Y-112363181D01*
X174806261Y-112396666D01*
X174779903Y-112399500D01*
X172229602Y-112399500D01*
X172162563Y-112379815D01*
X172119117Y-112331795D01*
X172112284Y-112318385D01*
X171991971Y-112152786D01*
X171847213Y-112008028D01*
X171681611Y-111887713D01*
X171627621Y-111860203D01*
X171576825Y-111812228D01*
X171560031Y-111744407D01*
X171582569Y-111678272D01*
X171627624Y-111639233D01*
X171681349Y-111611859D01*
X171725921Y-111579474D01*
X171046447Y-110900000D01*
X171052661Y-110900000D01*
X171154394Y-110872741D01*
X171245606Y-110820080D01*
X171320080Y-110745606D01*
X171372741Y-110654394D01*
X171400000Y-110552661D01*
X171400000Y-110546447D01*
X172079474Y-111225921D01*
X172111859Y-111181349D01*
X172204755Y-110999031D01*
X172267990Y-110804417D01*
X172300000Y-110602317D01*
X172300000Y-110397682D01*
X172267990Y-110195582D01*
X172204755Y-110000968D01*
X172111859Y-109818650D01*
X172079474Y-109774077D01*
X172079474Y-109774076D01*
X171400000Y-110453551D01*
X171400000Y-110447339D01*
X171372741Y-110345606D01*
X171320080Y-110254394D01*
X171245606Y-110179920D01*
X171154394Y-110127259D01*
X171052661Y-110100000D01*
X171046446Y-110100000D01*
X171725922Y-109420524D01*
X171725921Y-109420523D01*
X171681359Y-109388147D01*
X171681350Y-109388141D01*
X171499031Y-109295244D01*
X171304417Y-109232009D01*
X171102317Y-109200000D01*
X170897683Y-109200000D01*
X170695582Y-109232009D01*
X170500968Y-109295244D01*
X170318644Y-109388143D01*
X170274077Y-109420523D01*
X170274077Y-109420524D01*
X170953554Y-110100000D01*
X170947339Y-110100000D01*
X170845606Y-110127259D01*
X170754394Y-110179920D01*
X170679920Y-110254394D01*
X170627259Y-110345606D01*
X170600000Y-110447339D01*
X170600000Y-110453553D01*
X169920524Y-109774077D01*
X169920523Y-109774077D01*
X169888143Y-109818644D01*
X169795244Y-110000968D01*
X169732009Y-110195582D01*
X169700000Y-110397682D01*
X169700000Y-110602317D01*
X169732009Y-110804417D01*
X169795244Y-110999031D01*
X169888141Y-111181350D01*
X169888147Y-111181359D01*
X169920523Y-111225921D01*
X169920524Y-111225922D01*
X170600000Y-110546446D01*
X170600000Y-110552661D01*
X170627259Y-110654394D01*
X170679920Y-110745606D01*
X170754394Y-110820080D01*
X170845606Y-110872741D01*
X170947339Y-110900000D01*
X170953553Y-110900000D01*
X170274076Y-111579474D01*
X170318652Y-111611861D01*
X170372376Y-111639234D01*
X170423172Y-111687208D01*
X170439968Y-111755028D01*
X170417431Y-111821164D01*
X170372379Y-111860203D01*
X170318386Y-111887714D01*
X170152786Y-112008028D01*
X170008028Y-112152786D01*
X169887715Y-112318386D01*
X169794781Y-112500776D01*
X169731522Y-112695465D01*
X169699500Y-112897648D01*
X113300500Y-112897648D01*
X113300500Y-102419655D01*
X115284500Y-102419655D01*
X115284500Y-103420354D01*
X115290825Y-103489966D01*
X115290828Y-103489977D01*
X115340747Y-103650175D01*
X115340749Y-103650179D01*
X115427556Y-103793777D01*
X115427560Y-103793782D01*
X115546217Y-103912439D01*
X115546222Y-103912443D01*
X115645254Y-103972309D01*
X115689822Y-103999251D01*
X115850029Y-104049173D01*
X115919653Y-104055500D01*
X116920346Y-104055499D01*
X116920353Y-104055499D01*
X116989966Y-104049174D01*
X116989969Y-104049173D01*
X116989971Y-104049173D01*
X117150178Y-103999251D01*
X117224089Y-103954570D01*
X117293777Y-103912443D01*
X117293778Y-103912441D01*
X117293783Y-103912439D01*
X117412439Y-103793783D01*
X117420712Y-103780099D01*
X117478482Y-103684534D01*
X117499251Y-103650178D01*
X117549173Y-103489971D01*
X117555500Y-103420347D01*
X117555499Y-102830634D01*
X117824500Y-102830634D01*
X117824500Y-103009365D01*
X117852460Y-103185898D01*
X117852460Y-103185901D01*
X117907689Y-103355878D01*
X117907691Y-103355881D01*
X117988833Y-103515132D01*
X118093889Y-103659728D01*
X118220272Y-103786111D01*
X118364868Y-103891167D01*
X118524119Y-103972309D01*
X118524121Y-103972310D01*
X118682670Y-104023825D01*
X118694103Y-104027540D01*
X118870634Y-104055500D01*
X118870635Y-104055500D01*
X119049365Y-104055500D01*
X119049366Y-104055500D01*
X119225897Y-104027540D01*
X119225900Y-104027539D01*
X119225901Y-104027539D01*
X119395878Y-103972310D01*
X119395878Y-103972309D01*
X119395881Y-103972309D01*
X119555132Y-103891167D01*
X119699728Y-103786111D01*
X119826111Y-103659728D01*
X119931167Y-103515132D01*
X120012309Y-103355881D01*
X120025860Y-103314174D01*
X120067539Y-103185901D01*
X120067539Y-103185900D01*
X120067540Y-103185897D01*
X120095500Y-103009366D01*
X120095500Y-102861872D01*
X120104144Y-102832432D01*
X120110668Y-102802446D01*
X120114422Y-102797430D01*
X120115185Y-102794834D01*
X120131819Y-102774192D01*
X120152819Y-102753192D01*
X120214142Y-102719707D01*
X120283834Y-102724691D01*
X120339767Y-102766563D01*
X120364184Y-102832027D01*
X120364500Y-102840873D01*
X120364500Y-103009365D01*
X120392460Y-103185898D01*
X120392460Y-103185901D01*
X120447689Y-103355878D01*
X120447691Y-103355881D01*
X120528833Y-103515132D01*
X120633889Y-103659728D01*
X120760272Y-103786111D01*
X120904868Y-103891167D01*
X121064119Y-103972309D01*
X121064121Y-103972310D01*
X121222670Y-104023825D01*
X121234103Y-104027540D01*
X121410634Y-104055500D01*
X121410635Y-104055500D01*
X121589365Y-104055500D01*
X121589366Y-104055500D01*
X121765897Y-104027540D01*
X121765900Y-104027539D01*
X121765901Y-104027539D01*
X121935878Y-103972310D01*
X121935878Y-103972309D01*
X121935881Y-103972309D01*
X122095132Y-103891167D01*
X122239728Y-103786111D01*
X122366111Y-103659728D01*
X122471167Y-103515132D01*
X122552309Y-103355881D01*
X122565860Y-103314174D01*
X122607539Y-103185901D01*
X122607539Y-103185900D01*
X122607540Y-103185897D01*
X122635500Y-103009366D01*
X122635500Y-102861872D01*
X122644144Y-102832431D01*
X122650668Y-102802445D01*
X122654422Y-102797429D01*
X122655185Y-102794833D01*
X122671814Y-102774196D01*
X122693321Y-102752689D01*
X122754642Y-102719206D01*
X122824334Y-102724190D01*
X122880267Y-102766062D01*
X122904684Y-102831526D01*
X122905000Y-102840372D01*
X122905000Y-103009331D01*
X122932946Y-103185780D01*
X122988155Y-103355693D01*
X123069260Y-103514869D01*
X123078651Y-103527793D01*
X123078651Y-103527794D01*
X123640000Y-102966445D01*
X123640000Y-102972661D01*
X123667259Y-103074394D01*
X123719920Y-103165606D01*
X123794394Y-103240080D01*
X123885606Y-103292741D01*
X123987339Y-103320000D01*
X123993554Y-103320000D01*
X123432205Y-103881347D01*
X123432205Y-103881348D01*
X123445129Y-103890738D01*
X123604306Y-103971844D01*
X123774219Y-104027053D01*
X123950669Y-104055000D01*
X124129331Y-104055000D01*
X124305780Y-104027053D01*
X124475693Y-103971844D01*
X124634867Y-103890739D01*
X124634872Y-103890737D01*
X124647794Y-103881347D01*
X124086447Y-103320000D01*
X124092661Y-103320000D01*
X124194394Y-103292741D01*
X124285606Y-103240080D01*
X124360080Y-103165606D01*
X124412741Y-103074394D01*
X124440000Y-102972661D01*
X124440000Y-102966446D01*
X125001348Y-103527794D01*
X125010737Y-103514872D01*
X125010739Y-103514867D01*
X125091844Y-103355693D01*
X125147053Y-103185780D01*
X125175000Y-103009331D01*
X125175000Y-102830668D01*
X125147053Y-102654219D01*
X125091844Y-102484306D01*
X125010738Y-102325129D01*
X125001347Y-102312205D01*
X124440000Y-102873552D01*
X124440000Y-102867339D01*
X124412741Y-102765606D01*
X124360080Y-102674394D01*
X124285606Y-102599920D01*
X124194394Y-102547259D01*
X124092661Y-102520000D01*
X124086446Y-102520000D01*
X124647794Y-101958651D01*
X124634869Y-101949260D01*
X124475693Y-101868155D01*
X124305780Y-101812946D01*
X124129331Y-101785000D01*
X123960372Y-101785000D01*
X123893333Y-101765315D01*
X123847578Y-101712511D01*
X123837634Y-101643353D01*
X123866659Y-101579797D01*
X123872674Y-101573336D01*
X128884193Y-96561819D01*
X128945516Y-96528334D01*
X128971874Y-96525500D01*
X130617313Y-96525500D01*
X130684352Y-96545185D01*
X130686192Y-96546390D01*
X130697137Y-96553703D01*
X130851918Y-96617816D01*
X131016228Y-96650499D01*
X131016232Y-96650500D01*
X131016233Y-96650500D01*
X131183768Y-96650500D01*
X131183769Y-96650499D01*
X131348082Y-96617816D01*
X131502863Y-96553703D01*
X131611075Y-96481398D01*
X131677753Y-96460520D01*
X131679966Y-96460500D01*
X146598256Y-96460500D01*
X146665295Y-96480185D01*
X146698575Y-96511616D01*
X146768030Y-96607215D01*
X146912786Y-96751971D01*
X147067749Y-96864556D01*
X147078390Y-96872287D01*
X147169840Y-96918883D01*
X147171080Y-96919515D01*
X147221876Y-96967490D01*
X147238671Y-97035311D01*
X147216134Y-97101446D01*
X147171080Y-97140485D01*
X147078386Y-97187715D01*
X146912786Y-97308028D01*
X146768028Y-97452786D01*
X146647715Y-97618386D01*
X146554781Y-97800776D01*
X146491522Y-97995465D01*
X146459500Y-98197648D01*
X146459500Y-98402351D01*
X146491522Y-98604534D01*
X146554781Y-98799223D01*
X146647715Y-98981613D01*
X146768028Y-99147213D01*
X146912786Y-99291971D01*
X147067749Y-99404556D01*
X147078390Y-99412287D01*
X147169840Y-99458883D01*
X147171080Y-99459515D01*
X147221876Y-99507490D01*
X147238671Y-99575311D01*
X147216134Y-99641446D01*
X147171080Y-99680485D01*
X147078386Y-99727715D01*
X146912786Y-99848028D01*
X146768028Y-99992786D01*
X146647715Y-100158386D01*
X146554781Y-100340776D01*
X146491522Y-100535465D01*
X146459500Y-100737648D01*
X146459500Y-100942351D01*
X146491522Y-101144534D01*
X146554781Y-101339223D01*
X146584568Y-101397682D01*
X146642513Y-101511405D01*
X146647715Y-101521613D01*
X146768028Y-101687213D01*
X146912786Y-101831971D01*
X147044350Y-101927556D01*
X147078390Y-101952287D01*
X147169840Y-101998883D01*
X147171080Y-101999515D01*
X147221876Y-102047490D01*
X147238671Y-102115311D01*
X147216134Y-102181446D01*
X147171080Y-102220485D01*
X147078386Y-102267715D01*
X146912786Y-102388028D01*
X146768030Y-102532784D01*
X146698575Y-102628384D01*
X146643245Y-102671051D01*
X146598256Y-102679500D01*
X127785883Y-102679500D01*
X127718844Y-102659815D01*
X127673089Y-102607011D01*
X127667952Y-102593817D01*
X127632311Y-102484124D01*
X127632309Y-102484121D01*
X127632309Y-102484119D01*
X127551167Y-102324868D01*
X127446111Y-102180272D01*
X127319728Y-102053889D01*
X127175132Y-101948833D01*
X127015881Y-101867691D01*
X127015878Y-101867689D01*
X126845899Y-101812460D01*
X126709319Y-101790828D01*
X126669366Y-101784500D01*
X126490634Y-101784500D01*
X126450681Y-101790828D01*
X126314101Y-101812460D01*
X126314098Y-101812460D01*
X126144121Y-101867689D01*
X126144118Y-101867691D01*
X125984867Y-101948833D01*
X125840270Y-102053890D01*
X125713890Y-102180270D01*
X125608833Y-102324867D01*
X125527691Y-102484118D01*
X125527689Y-102484121D01*
X125472460Y-102654098D01*
X125472460Y-102654101D01*
X125444500Y-102830634D01*
X125444500Y-103009365D01*
X125472460Y-103185898D01*
X125472460Y-103185901D01*
X125527689Y-103355878D01*
X125527691Y-103355881D01*
X125608833Y-103515132D01*
X125713889Y-103659728D01*
X125840272Y-103786111D01*
X125984868Y-103891167D01*
X126144119Y-103972309D01*
X126144121Y-103972310D01*
X126302670Y-104023825D01*
X126314103Y-104027540D01*
X126490634Y-104055500D01*
X126490635Y-104055500D01*
X126669364Y-104055500D01*
X126669366Y-104055500D01*
X126758480Y-104041385D01*
X126770845Y-104042254D01*
X126779347Y-104039867D01*
X126801492Y-104044408D01*
X126814219Y-104045303D01*
X126819871Y-104047035D01*
X126835671Y-104053580D01*
X126845319Y-104055499D01*
X126929253Y-104072194D01*
X126971004Y-104080500D01*
X126971007Y-104080500D01*
X146598256Y-104080500D01*
X146665295Y-104100185D01*
X146698575Y-104131616D01*
X146768030Y-104227215D01*
X146912786Y-104371971D01*
X147067749Y-104484556D01*
X147078390Y-104492287D01*
X147169840Y-104538883D01*
X147171080Y-104539515D01*
X147221876Y-104587490D01*
X147238671Y-104655311D01*
X147216134Y-104721446D01*
X147171080Y-104760485D01*
X147078386Y-104807715D01*
X146912786Y-104928028D01*
X146768028Y-105072786D01*
X146647715Y-105238386D01*
X146554781Y-105420776D01*
X146491524Y-105615461D01*
X146491523Y-105615464D01*
X146491523Y-105615466D01*
X146459500Y-105817648D01*
X146459500Y-106022352D01*
X146463878Y-106049995D01*
X146491522Y-106224534D01*
X146554781Y-106419223D01*
X146576913Y-106462658D01*
X146628132Y-106563181D01*
X146647715Y-106601613D01*
X146768028Y-106767213D01*
X146912786Y-106911971D01*
X147067749Y-107024556D01*
X147078390Y-107032287D01*
X147150424Y-107068990D01*
X147171629Y-107079795D01*
X147222425Y-107127770D01*
X147239220Y-107195591D01*
X147216682Y-107261726D01*
X147171629Y-107300765D01*
X147078650Y-107348140D01*
X146913105Y-107468417D01*
X146913104Y-107468417D01*
X146768417Y-107613104D01*
X146768417Y-107613105D01*
X146648140Y-107778650D01*
X146555244Y-107960970D01*
X146492009Y-108155586D01*
X146483391Y-108210000D01*
X147326988Y-108210000D01*
X147294075Y-108267007D01*
X147260000Y-108394174D01*
X147260000Y-108525826D01*
X147294075Y-108652993D01*
X147326988Y-108710000D01*
X146483391Y-108710000D01*
X146492009Y-108764413D01*
X146555244Y-108959029D01*
X146648140Y-109141349D01*
X146768417Y-109306894D01*
X146768417Y-109306895D01*
X146913104Y-109451582D01*
X147078652Y-109571861D01*
X147171628Y-109619234D01*
X147222425Y-109667208D01*
X147239220Y-109735029D01*
X147216683Y-109801164D01*
X147171630Y-109840203D01*
X147078388Y-109887713D01*
X146912786Y-110008028D01*
X146768028Y-110152786D01*
X146647715Y-110318386D01*
X146554781Y-110500776D01*
X146491522Y-110695465D01*
X146459500Y-110897648D01*
X146459500Y-111102351D01*
X146491522Y-111304534D01*
X146554781Y-111499223D01*
X146595672Y-111579474D01*
X146647147Y-111680500D01*
X146647715Y-111681613D01*
X146768028Y-111847213D01*
X146912786Y-111991971D01*
X147049597Y-112091368D01*
X147078390Y-112112287D01*
X147157864Y-112152781D01*
X147260776Y-112205218D01*
X147260778Y-112205218D01*
X147260781Y-112205220D01*
X147365137Y-112239127D01*
X147455465Y-112268477D01*
X147556557Y-112284488D01*
X147657648Y-112300500D01*
X147657649Y-112300500D01*
X147862351Y-112300500D01*
X147862352Y-112300500D01*
X148064534Y-112268477D01*
X148259219Y-112205220D01*
X148441610Y-112112287D01*
X148537901Y-112042328D01*
X148607213Y-111991971D01*
X148607215Y-111991968D01*
X148607219Y-111991966D01*
X148751966Y-111847219D01*
X148751968Y-111847215D01*
X148751971Y-111847213D01*
X148805215Y-111773928D01*
X148872287Y-111681610D01*
X148965220Y-111499219D01*
X149028477Y-111304534D01*
X149060500Y-111102352D01*
X149060500Y-110897648D01*
X149039093Y-110762490D01*
X149028477Y-110695465D01*
X148975435Y-110532219D01*
X148965220Y-110500781D01*
X148965218Y-110500778D01*
X148965218Y-110500776D01*
X148931503Y-110434607D01*
X148872287Y-110318390D01*
X148814971Y-110239500D01*
X148751971Y-110152786D01*
X148607213Y-110008028D01*
X148441611Y-109887713D01*
X148348369Y-109840203D01*
X148297574Y-109792229D01*
X148280779Y-109724407D01*
X148303317Y-109658273D01*
X148348371Y-109619234D01*
X148441347Y-109571861D01*
X148606894Y-109451582D01*
X148606895Y-109451582D01*
X148751582Y-109306895D01*
X148751582Y-109306894D01*
X148871859Y-109141349D01*
X148964755Y-108959029D01*
X149027990Y-108764413D01*
X149036609Y-108710000D01*
X148193012Y-108710000D01*
X148225925Y-108652993D01*
X148260000Y-108525826D01*
X148260000Y-108394174D01*
X148225925Y-108267007D01*
X148193012Y-108210000D01*
X149036609Y-108210000D01*
X149027990Y-108155586D01*
X148964755Y-107960970D01*
X148871859Y-107778650D01*
X148751582Y-107613105D01*
X148751582Y-107613104D01*
X148606895Y-107468417D01*
X148441349Y-107348140D01*
X148348370Y-107300765D01*
X148297574Y-107252790D01*
X148280779Y-107184969D01*
X148303316Y-107118835D01*
X148348370Y-107079795D01*
X148441610Y-107032287D01*
X148462770Y-107016913D01*
X148607213Y-106911971D01*
X148607215Y-106911968D01*
X148607219Y-106911966D01*
X148751966Y-106767219D01*
X148751968Y-106767215D01*
X148751971Y-106767213D01*
X148804732Y-106694590D01*
X148872287Y-106601610D01*
X148965220Y-106419219D01*
X149028477Y-106224534D01*
X149060500Y-106022352D01*
X149060500Y-105829097D01*
X149080185Y-105762058D01*
X149132989Y-105716303D01*
X149202147Y-105706359D01*
X149265703Y-105735384D01*
X149272181Y-105741416D01*
X151095139Y-107564374D01*
X151095149Y-107564385D01*
X151099479Y-107568715D01*
X151099480Y-107568716D01*
X151211284Y-107680520D01*
X151298095Y-107730639D01*
X151298097Y-107730641D01*
X151336151Y-107752611D01*
X151348215Y-107759577D01*
X151500943Y-107800501D01*
X151500946Y-107800501D01*
X151666654Y-107800501D01*
X151666670Y-107800500D01*
X161676187Y-107800500D01*
X161743226Y-107820185D01*
X161788981Y-107872989D01*
X161798925Y-107942147D01*
X161794118Y-107962818D01*
X161731523Y-108155461D01*
X161731523Y-108155464D01*
X161699500Y-108357648D01*
X161699500Y-108562351D01*
X161731522Y-108764534D01*
X161794781Y-108959223D01*
X161887715Y-109141613D01*
X162008028Y-109307213D01*
X162152784Y-109451969D01*
X162189068Y-109478330D01*
X162231735Y-109533659D01*
X162237715Y-109603273D01*
X162205109Y-109665068D01*
X162144271Y-109699426D01*
X162129440Y-109701938D01*
X162092519Y-109705907D01*
X161957671Y-109756202D01*
X161957664Y-109756206D01*
X161842455Y-109842452D01*
X161842452Y-109842455D01*
X161756206Y-109957664D01*
X161756202Y-109957671D01*
X161705908Y-110092517D01*
X161701533Y-110133217D01*
X161699501Y-110152123D01*
X161699500Y-110152135D01*
X161699500Y-111847870D01*
X161699501Y-111847876D01*
X161705908Y-111907483D01*
X161756202Y-112042328D01*
X161756206Y-112042335D01*
X161842452Y-112157544D01*
X161842455Y-112157547D01*
X161957664Y-112243793D01*
X161957671Y-112243797D01*
X162092517Y-112294091D01*
X162092516Y-112294091D01*
X162099444Y-112294835D01*
X162152127Y-112300500D01*
X163847872Y-112300499D01*
X163907483Y-112294091D01*
X164042331Y-112243796D01*
X164157546Y-112157546D01*
X164243796Y-112042331D01*
X164294091Y-111907483D01*
X164300500Y-111847873D01*
X164300499Y-110152128D01*
X164294091Y-110092517D01*
X164259945Y-110000968D01*
X164243797Y-109957671D01*
X164243793Y-109957664D01*
X164157547Y-109842455D01*
X164157544Y-109842452D01*
X164042335Y-109756206D01*
X164042328Y-109756202D01*
X163907482Y-109705908D01*
X163907483Y-109705908D01*
X163870560Y-109701939D01*
X163853198Y-109694747D01*
X163834544Y-109692441D01*
X163821584Y-109681652D01*
X163806009Y-109675201D01*
X163795291Y-109659764D01*
X163780845Y-109647739D01*
X163775775Y-109631658D01*
X163766160Y-109617809D01*
X163765489Y-109599026D01*
X163759839Y-109581102D01*
X163764268Y-109564832D01*
X163763667Y-109547984D01*
X163773256Y-109531822D01*
X163778194Y-109513686D01*
X163794403Y-109496179D01*
X163799319Y-109487895D01*
X163800775Y-109486561D01*
X163805636Y-109482177D01*
X163847219Y-109451966D01*
X163991966Y-109307219D01*
X163991968Y-109307215D01*
X163991971Y-109307213D01*
X164046609Y-109232009D01*
X164112287Y-109141610D01*
X164205220Y-108959219D01*
X164268477Y-108764534D01*
X164300500Y-108562352D01*
X164300500Y-108357648D01*
X164268477Y-108155466D01*
X164268476Y-108155462D01*
X164268476Y-108155461D01*
X164205882Y-107962818D01*
X164203887Y-107892977D01*
X164239967Y-107833144D01*
X164302668Y-107802316D01*
X164323813Y-107800500D01*
X175713331Y-107800500D01*
X175713347Y-107800501D01*
X175720943Y-107800501D01*
X175879054Y-107800501D01*
X175879057Y-107800501D01*
X176031785Y-107759577D01*
X176081904Y-107730639D01*
X176168716Y-107680520D01*
X176246133Y-107603102D01*
X176252539Y-107598181D01*
X176277878Y-107588366D01*
X176301728Y-107575343D01*
X176309979Y-107575933D01*
X176317692Y-107572946D01*
X176344315Y-107578388D01*
X176371420Y-107580327D01*
X176375494Y-107581929D01*
X176452219Y-107613710D01*
X176667537Y-107671404D01*
X176888543Y-107700500D01*
X176888550Y-107700500D01*
X177111450Y-107700500D01*
X177111457Y-107700500D01*
X177332463Y-107671404D01*
X177547781Y-107613710D01*
X177753726Y-107528405D01*
X177946774Y-107416948D01*
X178123624Y-107281247D01*
X178281247Y-107123624D01*
X178416948Y-106946774D01*
X178528405Y-106753726D01*
X178613710Y-106547781D01*
X178671404Y-106332463D01*
X178700500Y-106111457D01*
X178700500Y-105888543D01*
X178671404Y-105667537D01*
X178613710Y-105452219D01*
X178528405Y-105246274D01*
X178456598Y-105121902D01*
X182249500Y-105121902D01*
X182249500Y-105358097D01*
X182286446Y-105591368D01*
X182359433Y-105815996D01*
X182464577Y-106022351D01*
X182466657Y-106026433D01*
X182605483Y-106217510D01*
X182772490Y-106384517D01*
X182963567Y-106523343D01*
X183011547Y-106547790D01*
X183174003Y-106630566D01*
X183174005Y-106630566D01*
X183174008Y-106630568D01*
X183294412Y-106669689D01*
X183398631Y-106703553D01*
X183631903Y-106740500D01*
X183631908Y-106740500D01*
X183868097Y-106740500D01*
X184101368Y-106703553D01*
X184102870Y-106703065D01*
X184325992Y-106630568D01*
X184536433Y-106523343D01*
X184727510Y-106384517D01*
X184894517Y-106217510D01*
X185033343Y-106026433D01*
X185140568Y-105815992D01*
X185213553Y-105591368D01*
X185215717Y-105577708D01*
X185250500Y-105358097D01*
X185250500Y-105121947D01*
X186750000Y-105121947D01*
X186750000Y-105358052D01*
X186786934Y-105591247D01*
X186859897Y-105815802D01*
X186967087Y-106026174D01*
X187027338Y-106109104D01*
X187027340Y-106109105D01*
X187726212Y-105410233D01*
X187737482Y-105452292D01*
X187809890Y-105577708D01*
X187912292Y-105680110D01*
X188037708Y-105752518D01*
X188079765Y-105763787D01*
X187380893Y-106462658D01*
X187463828Y-106522914D01*
X187674197Y-106630102D01*
X187898752Y-106703065D01*
X187898751Y-106703065D01*
X188131948Y-106740000D01*
X188368052Y-106740000D01*
X188601247Y-106703065D01*
X188825802Y-106630102D01*
X189036163Y-106522918D01*
X189036169Y-106522914D01*
X189119104Y-106462658D01*
X189119105Y-106462658D01*
X188420233Y-105763787D01*
X188462292Y-105752518D01*
X188587708Y-105680110D01*
X188690110Y-105577708D01*
X188762518Y-105452292D01*
X188773787Y-105410234D01*
X189472658Y-106109105D01*
X189472658Y-106109104D01*
X189532914Y-106026169D01*
X189532918Y-106026163D01*
X189640102Y-105815802D01*
X189713065Y-105591247D01*
X189750000Y-105358052D01*
X189750000Y-105121947D01*
X189713065Y-104888752D01*
X189640102Y-104664197D01*
X189532914Y-104453828D01*
X189472658Y-104370894D01*
X189472658Y-104370893D01*
X188773787Y-105069765D01*
X188762518Y-105027708D01*
X188690110Y-104902292D01*
X188587708Y-104799890D01*
X188462292Y-104727482D01*
X188420234Y-104716212D01*
X189119105Y-104017340D01*
X189119104Y-104017338D01*
X189036174Y-103957087D01*
X188825802Y-103849897D01*
X188601247Y-103776934D01*
X188601248Y-103776934D01*
X188368052Y-103740000D01*
X188131948Y-103740000D01*
X187898752Y-103776934D01*
X187674197Y-103849897D01*
X187463830Y-103957084D01*
X187380894Y-104017340D01*
X188079766Y-104716212D01*
X188037708Y-104727482D01*
X187912292Y-104799890D01*
X187809890Y-104902292D01*
X187737482Y-105027708D01*
X187726212Y-105069766D01*
X187027340Y-104370894D01*
X186967084Y-104453830D01*
X186859897Y-104664197D01*
X186786934Y-104888752D01*
X186750000Y-105121947D01*
X185250500Y-105121947D01*
X185250500Y-105121902D01*
X185213553Y-104888631D01*
X185140566Y-104664003D01*
X185053070Y-104492284D01*
X185033343Y-104453567D01*
X184894517Y-104262490D01*
X184727510Y-104095483D01*
X184536433Y-103956657D01*
X184325996Y-103849433D01*
X184101368Y-103776446D01*
X183868097Y-103739500D01*
X183868092Y-103739500D01*
X183631908Y-103739500D01*
X183631903Y-103739500D01*
X183398631Y-103776446D01*
X183174003Y-103849433D01*
X182963566Y-103956657D01*
X182866005Y-104027540D01*
X182772490Y-104095483D01*
X182772488Y-104095485D01*
X182772487Y-104095485D01*
X182605485Y-104262487D01*
X182605485Y-104262488D01*
X182605483Y-104262490D01*
X182557454Y-104328596D01*
X182466657Y-104453566D01*
X182359433Y-104664003D01*
X182286446Y-104888631D01*
X182249500Y-105121902D01*
X178456598Y-105121902D01*
X178416948Y-105053226D01*
X178301133Y-104902292D01*
X178281248Y-104876377D01*
X178281242Y-104876370D01*
X178123629Y-104718757D01*
X178123622Y-104718751D01*
X177946782Y-104583058D01*
X177946780Y-104583057D01*
X177946774Y-104583052D01*
X177753726Y-104471595D01*
X177753722Y-104471593D01*
X177547790Y-104386293D01*
X177547783Y-104386291D01*
X177547781Y-104386290D01*
X177332463Y-104328596D01*
X177332457Y-104328595D01*
X177332452Y-104328594D01*
X177111466Y-104299501D01*
X177111463Y-104299500D01*
X177111457Y-104299500D01*
X176888543Y-104299500D01*
X176888537Y-104299500D01*
X176888533Y-104299501D01*
X176667547Y-104328594D01*
X176667540Y-104328595D01*
X176667537Y-104328596D01*
X176452219Y-104386290D01*
X176452209Y-104386293D01*
X176246277Y-104471593D01*
X176246273Y-104471595D01*
X176053226Y-104583052D01*
X176053217Y-104583058D01*
X175876377Y-104718751D01*
X175876370Y-104718757D01*
X175718757Y-104876370D01*
X175718751Y-104876377D01*
X175583058Y-105053217D01*
X175583052Y-105053226D01*
X175471595Y-105246273D01*
X175471593Y-105246277D01*
X175386293Y-105452209D01*
X175386290Y-105452219D01*
X175352666Y-105577708D01*
X175328597Y-105667534D01*
X175328594Y-105667547D01*
X175299501Y-105888533D01*
X175299500Y-105888549D01*
X175299500Y-106111450D01*
X175299501Y-106111466D01*
X175328594Y-106332452D01*
X175328595Y-106332458D01*
X175328596Y-106332463D01*
X175358323Y-106443409D01*
X175356661Y-106513256D01*
X175317499Y-106571119D01*
X175253270Y-106598623D01*
X175238549Y-106599500D01*
X164315712Y-106599500D01*
X164248673Y-106579815D01*
X164202918Y-106527011D01*
X164192974Y-106457853D01*
X164203742Y-106423889D01*
X164203353Y-106423728D01*
X164205215Y-106419229D01*
X164205215Y-106419228D01*
X164205220Y-106419219D01*
X164268477Y-106224534D01*
X164300500Y-106022352D01*
X164300500Y-105817648D01*
X164268477Y-105615466D01*
X164268476Y-105615464D01*
X164268476Y-105615461D01*
X164228965Y-105493861D01*
X164205220Y-105420781D01*
X164205218Y-105420778D01*
X164205218Y-105420776D01*
X164171503Y-105354607D01*
X164112287Y-105238390D01*
X164069165Y-105179037D01*
X163991971Y-105072786D01*
X163847213Y-104928028D01*
X163681611Y-104807713D01*
X163588369Y-104760203D01*
X163537574Y-104712229D01*
X163520779Y-104644407D01*
X163543317Y-104578273D01*
X163588371Y-104539234D01*
X163681347Y-104491861D01*
X163846894Y-104371582D01*
X163846895Y-104371582D01*
X163991582Y-104226895D01*
X163991582Y-104226894D01*
X164111859Y-104061349D01*
X164204755Y-103879029D01*
X164267990Y-103684413D01*
X164276609Y-103630000D01*
X163433012Y-103630000D01*
X163465925Y-103572993D01*
X163500000Y-103445826D01*
X163500000Y-103314174D01*
X163465925Y-103187007D01*
X163433012Y-103130000D01*
X164276609Y-103130000D01*
X164267990Y-103075586D01*
X164204755Y-102880970D01*
X164111859Y-102698650D01*
X164043891Y-102605101D01*
X164043890Y-102605099D01*
X163991587Y-102533110D01*
X163991582Y-102533104D01*
X163846895Y-102388417D01*
X163681349Y-102268140D01*
X163588370Y-102220765D01*
X163537574Y-102172790D01*
X163520779Y-102104969D01*
X163543316Y-102038835D01*
X163588370Y-101999795D01*
X163588920Y-101999515D01*
X163681610Y-101952287D01*
X163715650Y-101927556D01*
X163847213Y-101831971D01*
X163847215Y-101831968D01*
X163847219Y-101831966D01*
X163991966Y-101687219D01*
X163991968Y-101687215D01*
X163991971Y-101687213D01*
X164112284Y-101521614D01*
X164112285Y-101521613D01*
X164112287Y-101521610D01*
X164119117Y-101508204D01*
X164167091Y-101457409D01*
X164229602Y-101440500D01*
X168090102Y-101440500D01*
X168157141Y-101460185D01*
X168158993Y-101461398D01*
X168216764Y-101499999D01*
X168297137Y-101553703D01*
X168451918Y-101617816D01*
X168616228Y-101650499D01*
X168616232Y-101650500D01*
X168616233Y-101650500D01*
X168783768Y-101650500D01*
X168783769Y-101650499D01*
X168948082Y-101617816D01*
X169102863Y-101553703D01*
X169242162Y-101460626D01*
X169360626Y-101342162D01*
X169453703Y-101202863D01*
X169517816Y-101048082D01*
X169550500Y-100883767D01*
X169550500Y-100716233D01*
X169517816Y-100551918D01*
X169453703Y-100397137D01*
X169367735Y-100268477D01*
X169360626Y-100257837D01*
X169242162Y-100139373D01*
X169102860Y-100046295D01*
X168948082Y-99982184D01*
X168948074Y-99982182D01*
X168783771Y-99949500D01*
X168783767Y-99949500D01*
X168616233Y-99949500D01*
X168616228Y-99949500D01*
X168451925Y-99982182D01*
X168451917Y-99982184D01*
X168297139Y-100046295D01*
X168157839Y-100139372D01*
X168138827Y-100158385D01*
X168094029Y-100203182D01*
X168032709Y-100236666D01*
X168006350Y-100239500D01*
X164229602Y-100239500D01*
X164162563Y-100219815D01*
X164119117Y-100171795D01*
X164112284Y-100158385D01*
X163991971Y-99992786D01*
X163847213Y-99848028D01*
X163815266Y-99824818D01*
X163772600Y-99769489D01*
X163766621Y-99699875D01*
X163799226Y-99638080D01*
X163860065Y-99603723D01*
X163888151Y-99600500D01*
X169770398Y-99600500D01*
X169837437Y-99620185D01*
X169880883Y-99668205D01*
X169887715Y-99681614D01*
X170008028Y-99847213D01*
X170152786Y-99991971D01*
X170318385Y-100112284D01*
X170318387Y-100112285D01*
X170318390Y-100112287D01*
X170372378Y-100139795D01*
X170423174Y-100187769D01*
X170439969Y-100255590D01*
X170417432Y-100321725D01*
X170372378Y-100360765D01*
X170318644Y-100388143D01*
X170274077Y-100420523D01*
X170274077Y-100420524D01*
X170953554Y-101100000D01*
X170947339Y-101100000D01*
X170845606Y-101127259D01*
X170754394Y-101179920D01*
X170679920Y-101254394D01*
X170627259Y-101345606D01*
X170600000Y-101447339D01*
X170600000Y-101453553D01*
X169920524Y-100774077D01*
X169920523Y-100774077D01*
X169888143Y-100818644D01*
X169795244Y-101000968D01*
X169732009Y-101195582D01*
X169700000Y-101397682D01*
X169700000Y-101602317D01*
X169732009Y-101804417D01*
X169795244Y-101999031D01*
X169888141Y-102181350D01*
X169888147Y-102181359D01*
X169920523Y-102225921D01*
X169920524Y-102225922D01*
X170600000Y-101546446D01*
X170600000Y-101552661D01*
X170627259Y-101654394D01*
X170679920Y-101745606D01*
X170754394Y-101820080D01*
X170845606Y-101872741D01*
X170947339Y-101900000D01*
X170953553Y-101900000D01*
X170274076Y-102579474D01*
X170318650Y-102611859D01*
X170500968Y-102704755D01*
X170695582Y-102767990D01*
X170897683Y-102800000D01*
X171102317Y-102800000D01*
X171304417Y-102767990D01*
X171499031Y-102704755D01*
X171681349Y-102611859D01*
X171725921Y-102579474D01*
X171046447Y-101900000D01*
X171052661Y-101900000D01*
X171154394Y-101872741D01*
X171245606Y-101820080D01*
X171320080Y-101745606D01*
X171372741Y-101654394D01*
X171400000Y-101552661D01*
X171400000Y-101546447D01*
X172079474Y-102225921D01*
X172111859Y-102181349D01*
X172204755Y-101999031D01*
X172267990Y-101804417D01*
X172300000Y-101602317D01*
X172300000Y-101397682D01*
X172267990Y-101195582D01*
X172204755Y-101000968D01*
X172111859Y-100818650D01*
X172079474Y-100774077D01*
X172079474Y-100774076D01*
X171400000Y-101453551D01*
X171400000Y-101447339D01*
X171372741Y-101345606D01*
X171320080Y-101254394D01*
X171245606Y-101179920D01*
X171154394Y-101127259D01*
X171052661Y-101100000D01*
X171046446Y-101100000D01*
X171725922Y-100420524D01*
X171725921Y-100420523D01*
X171681359Y-100388147D01*
X171681350Y-100388141D01*
X171627621Y-100360765D01*
X171576825Y-100312791D01*
X171560030Y-100244970D01*
X171582567Y-100178835D01*
X171627621Y-100139795D01*
X171681610Y-100112287D01*
X171772441Y-100046295D01*
X171847213Y-99991971D01*
X171847215Y-99991968D01*
X171847219Y-99991966D01*
X171991966Y-99847219D01*
X171991968Y-99847215D01*
X171991971Y-99847213D01*
X172112284Y-99681614D01*
X172112283Y-99681614D01*
X172112287Y-99681610D01*
X172119117Y-99668204D01*
X172167091Y-99617409D01*
X172229602Y-99600500D01*
X175175500Y-99600500D01*
X175242539Y-99620185D01*
X175288294Y-99672989D01*
X175299500Y-99724500D01*
X175299500Y-99951450D01*
X175299501Y-99951466D01*
X175328594Y-100172452D01*
X175328595Y-100172457D01*
X175328596Y-100172463D01*
X175384727Y-100381947D01*
X175386290Y-100387780D01*
X175386293Y-100387790D01*
X175459489Y-100564500D01*
X175471595Y-100593726D01*
X175583052Y-100786774D01*
X175583057Y-100786780D01*
X175583058Y-100786782D01*
X175718751Y-100963622D01*
X175718757Y-100963629D01*
X175876370Y-101121242D01*
X175876377Y-101121248D01*
X175973252Y-101195582D01*
X176053226Y-101256948D01*
X176246274Y-101368405D01*
X176452219Y-101453710D01*
X176667537Y-101511404D01*
X176888543Y-101540500D01*
X176888550Y-101540500D01*
X177111450Y-101540500D01*
X177111457Y-101540500D01*
X177332463Y-101511404D01*
X177547781Y-101453710D01*
X177753726Y-101368405D01*
X177946774Y-101256948D01*
X178123624Y-101121247D01*
X178281247Y-100963624D01*
X178416948Y-100786774D01*
X178528405Y-100593726D01*
X178545720Y-100551925D01*
X178560166Y-100517048D01*
X178604006Y-100462644D01*
X178670300Y-100440579D01*
X178674727Y-100440500D01*
X181875500Y-100440500D01*
X181942539Y-100460185D01*
X181988294Y-100512989D01*
X181999500Y-100564500D01*
X181999500Y-100618097D01*
X182036446Y-100851368D01*
X182109433Y-101075996D01*
X182170366Y-101195582D01*
X182216657Y-101286433D01*
X182355483Y-101477510D01*
X182522490Y-101644517D01*
X182713567Y-101783343D01*
X182808995Y-101831966D01*
X182924003Y-101890566D01*
X182924005Y-101890566D01*
X182924008Y-101890568D01*
X182953037Y-101900000D01*
X183148631Y-101963553D01*
X183381903Y-102000500D01*
X183381908Y-102000500D01*
X183618097Y-102000500D01*
X183851368Y-101963553D01*
X183896671Y-101948833D01*
X184075992Y-101890568D01*
X184286433Y-101783343D01*
X184477510Y-101644517D01*
X184644517Y-101477510D01*
X184783343Y-101286433D01*
X184890568Y-101075992D01*
X184963553Y-100851368D01*
X184968736Y-100818644D01*
X185000500Y-100618097D01*
X185000500Y-100381947D01*
X186500000Y-100381947D01*
X186500000Y-100618052D01*
X186536934Y-100851247D01*
X186609897Y-101075802D01*
X186717087Y-101286174D01*
X186777338Y-101369104D01*
X186777340Y-101369105D01*
X187476212Y-100670233D01*
X187487482Y-100712292D01*
X187559890Y-100837708D01*
X187662292Y-100940110D01*
X187787708Y-101012518D01*
X187829765Y-101023787D01*
X187130893Y-101722658D01*
X187213828Y-101782914D01*
X187424197Y-101890102D01*
X187648752Y-101963065D01*
X187648751Y-101963065D01*
X187881948Y-102000000D01*
X188118052Y-102000000D01*
X188351247Y-101963065D01*
X188575802Y-101890102D01*
X188786163Y-101782918D01*
X188786169Y-101782914D01*
X188869104Y-101722658D01*
X188869105Y-101722658D01*
X188170233Y-101023787D01*
X188212292Y-101012518D01*
X188337708Y-100940110D01*
X188440110Y-100837708D01*
X188512518Y-100712292D01*
X188523787Y-100670234D01*
X189222658Y-101369105D01*
X189222658Y-101369104D01*
X189282914Y-101286169D01*
X189282918Y-101286163D01*
X189390102Y-101075802D01*
X189463065Y-100851247D01*
X189500000Y-100618052D01*
X189500000Y-100381947D01*
X189463065Y-100148752D01*
X189390102Y-99924197D01*
X189282914Y-99713828D01*
X189222658Y-99630894D01*
X189222658Y-99630893D01*
X188523787Y-100329765D01*
X188512518Y-100287708D01*
X188440110Y-100162292D01*
X188337708Y-100059890D01*
X188212292Y-99987482D01*
X188170234Y-99976212D01*
X188869105Y-99277340D01*
X188869104Y-99277338D01*
X188786174Y-99217087D01*
X188575802Y-99109897D01*
X188351247Y-99036934D01*
X188351248Y-99036934D01*
X188118052Y-99000000D01*
X187881948Y-99000000D01*
X187648752Y-99036934D01*
X187424197Y-99109897D01*
X187213830Y-99217084D01*
X187130894Y-99277340D01*
X187829766Y-99976212D01*
X187787708Y-99987482D01*
X187662292Y-100059890D01*
X187559890Y-100162292D01*
X187487482Y-100287708D01*
X187476212Y-100329765D01*
X186777340Y-99630894D01*
X186717084Y-99713830D01*
X186609897Y-99924197D01*
X186536934Y-100148752D01*
X186500000Y-100381947D01*
X185000500Y-100381947D01*
X185000500Y-100381902D01*
X184963553Y-100148631D01*
X184912914Y-99992781D01*
X184890568Y-99924008D01*
X184890566Y-99924005D01*
X184890566Y-99924003D01*
X184834002Y-99812991D01*
X184783343Y-99713567D01*
X184644517Y-99522490D01*
X184477510Y-99355483D01*
X184286433Y-99216657D01*
X184286431Y-99216656D01*
X184075996Y-99109433D01*
X183851368Y-99036446D01*
X183618097Y-98999500D01*
X183618092Y-98999500D01*
X183381908Y-98999500D01*
X183381903Y-98999500D01*
X183148631Y-99036446D01*
X182924003Y-99109433D01*
X182713568Y-99216656D01*
X182709418Y-99219200D01*
X182708668Y-99217977D01*
X182648920Y-99239298D01*
X182641837Y-99239500D01*
X178674727Y-99239500D01*
X178607688Y-99219815D01*
X178561933Y-99167011D01*
X178560166Y-99162952D01*
X178528409Y-99086282D01*
X178528404Y-99086273D01*
X178499637Y-99036447D01*
X178416948Y-98893226D01*
X178281247Y-98716376D01*
X178281242Y-98716370D01*
X178123629Y-98558757D01*
X178123622Y-98558751D01*
X177946782Y-98423058D01*
X177946780Y-98423057D01*
X177946774Y-98423052D01*
X177753726Y-98311595D01*
X177753722Y-98311593D01*
X177547790Y-98226293D01*
X177547783Y-98226291D01*
X177547781Y-98226290D01*
X177332463Y-98168596D01*
X177332457Y-98168595D01*
X177332452Y-98168594D01*
X177111466Y-98139501D01*
X177111463Y-98139500D01*
X177111457Y-98139500D01*
X176888543Y-98139500D01*
X176888537Y-98139500D01*
X176888533Y-98139501D01*
X176667547Y-98168594D01*
X176667540Y-98168595D01*
X176667537Y-98168596D01*
X176559113Y-98197648D01*
X176452219Y-98226290D01*
X176452209Y-98226293D01*
X176246277Y-98311593D01*
X176246273Y-98311595D01*
X176157926Y-98362603D01*
X176123307Y-98382591D01*
X176122794Y-98382887D01*
X176060793Y-98399500D01*
X172229602Y-98399500D01*
X172162563Y-98379815D01*
X172119117Y-98331795D01*
X172112287Y-98318390D01*
X172112285Y-98318387D01*
X172112284Y-98318385D01*
X171991971Y-98152786D01*
X171847213Y-98008028D01*
X171681613Y-97887715D01*
X171681612Y-97887714D01*
X171681610Y-97887713D01*
X171624653Y-97858691D01*
X171499223Y-97794781D01*
X171304534Y-97731522D01*
X171129995Y-97703878D01*
X171102352Y-97699500D01*
X170897648Y-97699500D01*
X170873329Y-97703351D01*
X170695465Y-97731522D01*
X170500776Y-97794781D01*
X170318386Y-97887715D01*
X170152786Y-98008028D01*
X170008028Y-98152786D01*
X169887715Y-98318385D01*
X169880883Y-98331795D01*
X169832909Y-98382591D01*
X169770398Y-98399500D01*
X164424500Y-98399500D01*
X164357461Y-98379815D01*
X164311706Y-98327011D01*
X164300500Y-98275500D01*
X164300500Y-98197648D01*
X164268477Y-97995465D01*
X164205218Y-97800776D01*
X164169931Y-97731522D01*
X164112287Y-97618390D01*
X164104556Y-97607749D01*
X163991971Y-97452786D01*
X163847213Y-97308028D01*
X163681614Y-97187715D01*
X163675006Y-97184348D01*
X163588917Y-97140483D01*
X163538123Y-97092511D01*
X163521328Y-97024690D01*
X163543865Y-96958555D01*
X163588917Y-96919516D01*
X163681610Y-96872287D01*
X163702770Y-96856913D01*
X163847213Y-96751971D01*
X163847215Y-96751968D01*
X163847219Y-96751966D01*
X163991966Y-96607219D01*
X163991968Y-96607215D01*
X163991971Y-96607213D01*
X164112284Y-96441614D01*
X164112285Y-96441613D01*
X164112287Y-96441610D01*
X164119117Y-96428204D01*
X164167091Y-96377409D01*
X164229602Y-96360500D01*
X167470034Y-96360500D01*
X167537073Y-96380185D01*
X167538925Y-96381398D01*
X167647137Y-96453703D01*
X167647138Y-96453703D01*
X167647139Y-96453704D01*
X167663850Y-96460626D01*
X167801918Y-96517816D01*
X167945616Y-96546399D01*
X167966228Y-96550499D01*
X167966232Y-96550500D01*
X167966233Y-96550500D01*
X168133768Y-96550500D01*
X168133769Y-96550499D01*
X168298082Y-96517816D01*
X168452863Y-96453703D01*
X168592162Y-96360626D01*
X168710626Y-96242162D01*
X168803703Y-96102863D01*
X168867816Y-95948082D01*
X168900500Y-95783767D01*
X168900500Y-95616233D01*
X168867816Y-95451918D01*
X168803703Y-95297137D01*
X168763167Y-95236471D01*
X168710626Y-95157837D01*
X168592162Y-95039373D01*
X168452860Y-94946295D01*
X168298082Y-94882184D01*
X168298074Y-94882182D01*
X168133771Y-94849500D01*
X168133767Y-94849500D01*
X167966233Y-94849500D01*
X167966228Y-94849500D01*
X167801925Y-94882182D01*
X167801917Y-94882184D01*
X167647139Y-94946295D01*
X167507839Y-95039372D01*
X167472732Y-95074480D01*
X167424029Y-95123182D01*
X167362709Y-95156666D01*
X167336350Y-95159500D01*
X164229602Y-95159500D01*
X164162563Y-95139815D01*
X164119117Y-95091795D01*
X164112284Y-95078385D01*
X163991971Y-94912786D01*
X163847217Y-94768032D01*
X163847212Y-94768028D01*
X163815244Y-94744802D01*
X163682762Y-94648549D01*
X175299500Y-94648549D01*
X175299500Y-94871450D01*
X175299501Y-94871466D01*
X175328594Y-95092452D01*
X175328595Y-95092457D01*
X175328596Y-95092463D01*
X175386290Y-95307780D01*
X175386293Y-95307790D01*
X175471593Y-95513722D01*
X175471595Y-95513726D01*
X175583052Y-95706774D01*
X175583057Y-95706780D01*
X175583058Y-95706782D01*
X175718751Y-95883622D01*
X175718757Y-95883629D01*
X175876370Y-96041242D01*
X175876376Y-96041247D01*
X176053226Y-96176948D01*
X176246274Y-96288405D01*
X176452219Y-96373710D01*
X176667537Y-96431404D01*
X176888543Y-96460500D01*
X176888550Y-96460500D01*
X177111450Y-96460500D01*
X177111457Y-96460500D01*
X177332463Y-96431404D01*
X177547781Y-96373710D01*
X177753726Y-96288405D01*
X177946774Y-96176948D01*
X178123624Y-96041247D01*
X178281247Y-95883624D01*
X178416948Y-95706774D01*
X178528405Y-95513726D01*
X178613710Y-95307781D01*
X178671404Y-95092463D01*
X178700500Y-94871457D01*
X178700500Y-94648543D01*
X178671404Y-94427537D01*
X178613710Y-94212219D01*
X178528405Y-94006274D01*
X178456598Y-93881902D01*
X181999500Y-93881902D01*
X181999500Y-94118097D01*
X182036446Y-94351368D01*
X182109433Y-94575996D01*
X182195445Y-94744802D01*
X182216657Y-94786433D01*
X182355483Y-94977510D01*
X182522490Y-95144517D01*
X182713567Y-95283343D01*
X182761547Y-95307790D01*
X182924003Y-95390566D01*
X182924005Y-95390566D01*
X182924008Y-95390568D01*
X183044412Y-95429689D01*
X183148631Y-95463553D01*
X183381903Y-95500500D01*
X183381908Y-95500500D01*
X183618097Y-95500500D01*
X183851368Y-95463553D01*
X183887155Y-95451925D01*
X184075992Y-95390568D01*
X184286433Y-95283343D01*
X184477510Y-95144517D01*
X184644517Y-94977510D01*
X184783343Y-94786433D01*
X184890568Y-94575992D01*
X184963553Y-94351368D01*
X184976759Y-94267990D01*
X185000500Y-94118097D01*
X185000500Y-93881947D01*
X186500000Y-93881947D01*
X186500000Y-94118052D01*
X186536934Y-94351247D01*
X186609897Y-94575802D01*
X186717087Y-94786174D01*
X186777338Y-94869104D01*
X186777340Y-94869105D01*
X187476212Y-94170233D01*
X187487482Y-94212292D01*
X187559890Y-94337708D01*
X187662292Y-94440110D01*
X187787708Y-94512518D01*
X187829765Y-94523787D01*
X187130893Y-95222658D01*
X187213828Y-95282914D01*
X187424197Y-95390102D01*
X187648752Y-95463065D01*
X187648751Y-95463065D01*
X187881948Y-95500000D01*
X188118052Y-95500000D01*
X188351247Y-95463065D01*
X188575802Y-95390102D01*
X188786163Y-95282918D01*
X188786169Y-95282914D01*
X188869104Y-95222658D01*
X188869105Y-95222658D01*
X188170233Y-94523787D01*
X188212292Y-94512518D01*
X188337708Y-94440110D01*
X188440110Y-94337708D01*
X188512518Y-94212292D01*
X188523787Y-94170234D01*
X189222658Y-94869105D01*
X189222658Y-94869104D01*
X189282914Y-94786169D01*
X189282918Y-94786163D01*
X189390102Y-94575802D01*
X189463065Y-94351247D01*
X189500000Y-94118052D01*
X189500000Y-93881947D01*
X189463065Y-93648752D01*
X189390102Y-93424197D01*
X189282914Y-93213828D01*
X189222658Y-93130894D01*
X189222658Y-93130893D01*
X188523787Y-93829765D01*
X188512518Y-93787708D01*
X188440110Y-93662292D01*
X188337708Y-93559890D01*
X188212292Y-93487482D01*
X188170234Y-93476212D01*
X188869105Y-92777340D01*
X188869104Y-92777338D01*
X188786174Y-92717087D01*
X188575802Y-92609897D01*
X188351247Y-92536934D01*
X188351248Y-92536934D01*
X188118052Y-92500000D01*
X187881948Y-92500000D01*
X187648752Y-92536934D01*
X187424197Y-92609897D01*
X187213830Y-92717084D01*
X187130894Y-92777340D01*
X187829766Y-93476212D01*
X187787708Y-93487482D01*
X187662292Y-93559890D01*
X187559890Y-93662292D01*
X187487482Y-93787708D01*
X187476212Y-93829765D01*
X186777340Y-93130894D01*
X186717084Y-93213830D01*
X186609897Y-93424197D01*
X186536934Y-93648752D01*
X186500000Y-93881947D01*
X185000500Y-93881947D01*
X185000500Y-93881902D01*
X184963553Y-93648631D01*
X184923231Y-93524534D01*
X184890568Y-93424008D01*
X184890566Y-93424005D01*
X184890566Y-93424003D01*
X184829633Y-93304417D01*
X184783343Y-93213567D01*
X184644517Y-93022490D01*
X184477510Y-92855483D01*
X184286433Y-92716657D01*
X184214333Y-92679920D01*
X184075996Y-92609433D01*
X183851368Y-92536446D01*
X183618097Y-92499500D01*
X183618092Y-92499500D01*
X183381908Y-92499500D01*
X183381903Y-92499500D01*
X183148631Y-92536446D01*
X182924003Y-92609433D01*
X182713566Y-92716657D01*
X182630047Y-92777338D01*
X182522490Y-92855483D01*
X182522488Y-92855485D01*
X182522487Y-92855485D01*
X182355485Y-93022487D01*
X182355485Y-93022488D01*
X182355483Y-93022490D01*
X182307454Y-93088596D01*
X182216657Y-93213566D01*
X182109433Y-93424003D01*
X182036446Y-93648631D01*
X181999500Y-93881902D01*
X178456598Y-93881902D01*
X178416948Y-93813226D01*
X178344814Y-93719219D01*
X178281248Y-93636377D01*
X178281242Y-93636370D01*
X178123629Y-93478757D01*
X178123622Y-93478751D01*
X177946782Y-93343058D01*
X177946780Y-93343057D01*
X177946774Y-93343052D01*
X177753726Y-93231595D01*
X177753722Y-93231593D01*
X177547790Y-93146293D01*
X177547783Y-93146291D01*
X177547781Y-93146290D01*
X177332463Y-93088596D01*
X177332457Y-93088595D01*
X177332452Y-93088594D01*
X177111466Y-93059501D01*
X177111463Y-93059500D01*
X177111457Y-93059500D01*
X176888543Y-93059500D01*
X176888537Y-93059500D01*
X176888533Y-93059501D01*
X176667547Y-93088594D01*
X176667540Y-93088595D01*
X176667537Y-93088596D01*
X176559113Y-93117648D01*
X176452219Y-93146290D01*
X176452209Y-93146293D01*
X176246277Y-93231593D01*
X176246273Y-93231595D01*
X176053226Y-93343052D01*
X176053217Y-93343058D01*
X175876377Y-93478751D01*
X175876370Y-93478757D01*
X175718757Y-93636370D01*
X175718751Y-93636377D01*
X175583058Y-93813217D01*
X175583052Y-93813226D01*
X175471595Y-94006273D01*
X175471593Y-94006277D01*
X175386293Y-94212209D01*
X175386290Y-94212219D01*
X175341464Y-94379515D01*
X175328597Y-94427534D01*
X175328594Y-94427547D01*
X175299501Y-94648533D01*
X175299500Y-94648549D01*
X163682762Y-94648549D01*
X163681614Y-94647715D01*
X163675006Y-94644348D01*
X163588917Y-94600483D01*
X163538123Y-94552511D01*
X163521328Y-94484690D01*
X163543865Y-94418555D01*
X163588917Y-94379516D01*
X163681610Y-94332287D01*
X163770108Y-94267990D01*
X163847213Y-94211971D01*
X163847215Y-94211968D01*
X163847219Y-94211966D01*
X163991966Y-94067219D01*
X164112287Y-93901610D01*
X164205220Y-93719219D01*
X164268477Y-93524534D01*
X164300500Y-93322352D01*
X164300500Y-93117648D01*
X164268477Y-92915466D01*
X164205220Y-92720781D01*
X164205218Y-92720778D01*
X164205218Y-92720776D01*
X164157568Y-92627259D01*
X164112287Y-92538390D01*
X164085099Y-92500968D01*
X163991971Y-92372786D01*
X163847213Y-92228028D01*
X163681614Y-92107715D01*
X163675006Y-92104348D01*
X163588917Y-92060483D01*
X163538123Y-92012511D01*
X163521328Y-91944690D01*
X163543865Y-91878555D01*
X163588917Y-91839516D01*
X163681610Y-91792287D01*
X163714382Y-91768477D01*
X163847213Y-91671971D01*
X163847215Y-91671968D01*
X163847219Y-91671966D01*
X163991966Y-91527219D01*
X163991968Y-91527215D01*
X163991971Y-91527213D01*
X164045376Y-91453706D01*
X164112287Y-91361610D01*
X164205220Y-91179219D01*
X164268477Y-90984534D01*
X164300500Y-90782352D01*
X164300500Y-90577648D01*
X164271990Y-90397648D01*
X169699500Y-90397648D01*
X169699500Y-90602351D01*
X169731522Y-90804534D01*
X169794781Y-90999223D01*
X169887715Y-91181613D01*
X170008028Y-91347213D01*
X170152786Y-91491971D01*
X170318385Y-91612284D01*
X170318387Y-91612285D01*
X170318390Y-91612287D01*
X170372378Y-91639795D01*
X170423174Y-91687769D01*
X170439969Y-91755590D01*
X170417432Y-91821725D01*
X170372378Y-91860765D01*
X170318644Y-91888143D01*
X170274077Y-91920523D01*
X170274077Y-91920524D01*
X170953554Y-92600000D01*
X170947339Y-92600000D01*
X170845606Y-92627259D01*
X170754394Y-92679920D01*
X170679920Y-92754394D01*
X170627259Y-92845606D01*
X170600000Y-92947339D01*
X170600000Y-92953553D01*
X169920524Y-92274077D01*
X169920523Y-92274077D01*
X169888143Y-92318644D01*
X169795244Y-92500968D01*
X169732009Y-92695582D01*
X169700000Y-92897682D01*
X169700000Y-93102317D01*
X169732009Y-93304417D01*
X169795244Y-93499031D01*
X169888141Y-93681350D01*
X169888147Y-93681359D01*
X169920523Y-93725921D01*
X169920524Y-93725922D01*
X170600000Y-93046446D01*
X170600000Y-93052661D01*
X170627259Y-93154394D01*
X170679920Y-93245606D01*
X170754394Y-93320080D01*
X170845606Y-93372741D01*
X170947339Y-93400000D01*
X170953553Y-93400000D01*
X170274076Y-94079474D01*
X170318650Y-94111859D01*
X170500968Y-94204755D01*
X170695582Y-94267990D01*
X170897683Y-94300000D01*
X171102317Y-94300000D01*
X171304417Y-94267990D01*
X171499031Y-94204755D01*
X171681349Y-94111859D01*
X171725921Y-94079474D01*
X171046447Y-93400000D01*
X171052661Y-93400000D01*
X171154394Y-93372741D01*
X171245606Y-93320080D01*
X171320080Y-93245606D01*
X171372741Y-93154394D01*
X171400000Y-93052661D01*
X171400000Y-93046447D01*
X172079474Y-93725921D01*
X172111859Y-93681349D01*
X172204755Y-93499031D01*
X172267990Y-93304417D01*
X172300000Y-93102317D01*
X172300000Y-92897682D01*
X172267990Y-92695582D01*
X172204755Y-92500968D01*
X172111859Y-92318650D01*
X172079474Y-92274077D01*
X172079474Y-92274076D01*
X171400000Y-92953551D01*
X171400000Y-92947339D01*
X171372741Y-92845606D01*
X171320080Y-92754394D01*
X171245606Y-92679920D01*
X171154394Y-92627259D01*
X171052661Y-92600000D01*
X171046446Y-92600000D01*
X171725922Y-91920524D01*
X171725921Y-91920523D01*
X171681359Y-91888147D01*
X171681350Y-91888141D01*
X171627621Y-91860765D01*
X171576825Y-91812791D01*
X171560030Y-91744970D01*
X171582567Y-91678835D01*
X171627621Y-91639795D01*
X171681610Y-91612287D01*
X171731144Y-91576298D01*
X171847213Y-91491971D01*
X171847215Y-91491968D01*
X171847219Y-91491966D01*
X171991966Y-91347219D01*
X171991968Y-91347215D01*
X171991971Y-91347213D01*
X172112284Y-91181614D01*
X172112285Y-91181613D01*
X172112287Y-91181610D01*
X172119117Y-91168204D01*
X172167091Y-91117409D01*
X172229602Y-91100500D01*
X175807245Y-91100500D01*
X175874284Y-91120185D01*
X175882731Y-91126124D01*
X176053216Y-91256941D01*
X176053220Y-91256943D01*
X176053226Y-91256948D01*
X176246274Y-91368405D01*
X176452219Y-91453710D01*
X176667537Y-91511404D01*
X176888543Y-91540500D01*
X176888550Y-91540500D01*
X177111450Y-91540500D01*
X177111457Y-91540500D01*
X177332463Y-91511404D01*
X177547781Y-91453710D01*
X177753726Y-91368405D01*
X177946774Y-91256948D01*
X178123624Y-91121247D01*
X178281247Y-90963624D01*
X178416948Y-90786774D01*
X178528405Y-90593726D01*
X178535830Y-90575802D01*
X178560166Y-90517048D01*
X178604006Y-90462644D01*
X178670300Y-90440579D01*
X178674727Y-90440500D01*
X181975317Y-90440500D01*
X182042356Y-90460185D01*
X182088111Y-90512989D01*
X182093246Y-90526178D01*
X182109432Y-90575992D01*
X182216657Y-90786433D01*
X182355483Y-90977510D01*
X182522490Y-91144517D01*
X182713567Y-91283343D01*
X182812991Y-91334002D01*
X182924003Y-91390566D01*
X182924005Y-91390566D01*
X182924008Y-91390568D01*
X183044412Y-91429689D01*
X183148631Y-91463553D01*
X183381903Y-91500500D01*
X183381908Y-91500500D01*
X183618097Y-91500500D01*
X183851368Y-91463553D01*
X183852870Y-91463065D01*
X184075992Y-91390568D01*
X184286433Y-91283343D01*
X184477510Y-91144517D01*
X184644517Y-90977510D01*
X184783343Y-90786433D01*
X184890568Y-90575992D01*
X184963553Y-90351368D01*
X184965717Y-90337708D01*
X185000500Y-90118097D01*
X185000500Y-89881947D01*
X186500000Y-89881947D01*
X186500000Y-90118052D01*
X186536934Y-90351247D01*
X186609897Y-90575802D01*
X186717087Y-90786174D01*
X186777338Y-90869104D01*
X186777340Y-90869105D01*
X187476212Y-90170233D01*
X187487482Y-90212292D01*
X187559890Y-90337708D01*
X187662292Y-90440110D01*
X187787708Y-90512518D01*
X187829765Y-90523787D01*
X187130893Y-91222658D01*
X187213828Y-91282914D01*
X187424197Y-91390102D01*
X187648752Y-91463065D01*
X187648751Y-91463065D01*
X187881948Y-91500000D01*
X188118052Y-91500000D01*
X188351247Y-91463065D01*
X188575802Y-91390102D01*
X188786163Y-91282918D01*
X188786169Y-91282914D01*
X188869104Y-91222658D01*
X188869105Y-91222658D01*
X188170233Y-90523787D01*
X188212292Y-90512518D01*
X188337708Y-90440110D01*
X188440110Y-90337708D01*
X188512518Y-90212292D01*
X188523787Y-90170234D01*
X189222658Y-90869105D01*
X189222658Y-90869104D01*
X189282914Y-90786169D01*
X189282918Y-90786163D01*
X189390102Y-90575802D01*
X189463065Y-90351247D01*
X189500000Y-90118052D01*
X189500000Y-89881947D01*
X189463065Y-89648752D01*
X189390102Y-89424197D01*
X189282914Y-89213828D01*
X189222658Y-89130894D01*
X189222658Y-89130893D01*
X188523787Y-89829765D01*
X188512518Y-89787708D01*
X188440110Y-89662292D01*
X188337708Y-89559890D01*
X188212292Y-89487482D01*
X188170234Y-89476212D01*
X188869105Y-88777340D01*
X188869104Y-88777338D01*
X188786174Y-88717087D01*
X188575802Y-88609897D01*
X188351247Y-88536934D01*
X188351248Y-88536934D01*
X188118052Y-88500000D01*
X187881948Y-88500000D01*
X187648752Y-88536934D01*
X187424197Y-88609897D01*
X187213830Y-88717084D01*
X187130894Y-88777340D01*
X187829766Y-89476212D01*
X187787708Y-89487482D01*
X187662292Y-89559890D01*
X187559890Y-89662292D01*
X187487482Y-89787708D01*
X187476212Y-89829765D01*
X186777340Y-89130894D01*
X186717084Y-89213830D01*
X186609897Y-89424197D01*
X186536934Y-89648752D01*
X186500000Y-89881947D01*
X185000500Y-89881947D01*
X185000500Y-89881902D01*
X184963553Y-89648631D01*
X184917868Y-89508028D01*
X184890568Y-89424008D01*
X184890566Y-89424005D01*
X184890566Y-89424003D01*
X184827136Y-89299515D01*
X184783343Y-89213567D01*
X184644517Y-89022490D01*
X184477510Y-88855483D01*
X184286433Y-88716657D01*
X184285870Y-88716370D01*
X184075996Y-88609433D01*
X183851368Y-88536446D01*
X183618097Y-88499500D01*
X183618092Y-88499500D01*
X183381908Y-88499500D01*
X183381903Y-88499500D01*
X183148631Y-88536446D01*
X182924003Y-88609433D01*
X182713566Y-88716657D01*
X182630047Y-88777338D01*
X182522490Y-88855483D01*
X182522488Y-88855485D01*
X182522487Y-88855485D01*
X182355485Y-89022487D01*
X182355480Y-89022493D01*
X182234953Y-89188385D01*
X182179623Y-89231051D01*
X182134635Y-89239500D01*
X178674727Y-89239500D01*
X178607688Y-89219815D01*
X178561933Y-89167011D01*
X178560166Y-89162952D01*
X178528409Y-89086282D01*
X178528404Y-89086273D01*
X178416948Y-88893226D01*
X178281247Y-88716376D01*
X178281242Y-88716370D01*
X178123629Y-88558757D01*
X178123622Y-88558751D01*
X177946782Y-88423058D01*
X177946780Y-88423057D01*
X177946774Y-88423052D01*
X177753726Y-88311595D01*
X177753722Y-88311593D01*
X177547790Y-88226293D01*
X177547783Y-88226291D01*
X177547781Y-88226290D01*
X177332463Y-88168596D01*
X177332457Y-88168595D01*
X177332452Y-88168594D01*
X177111466Y-88139501D01*
X177111463Y-88139500D01*
X177111457Y-88139500D01*
X176888543Y-88139500D01*
X176888537Y-88139500D01*
X176888533Y-88139501D01*
X176667547Y-88168594D01*
X176667540Y-88168595D01*
X176667537Y-88168596D01*
X176452219Y-88226290D01*
X176452209Y-88226293D01*
X176246277Y-88311593D01*
X176246273Y-88311595D01*
X176053226Y-88423052D01*
X176053217Y-88423058D01*
X175876377Y-88558751D01*
X175876370Y-88558757D01*
X175718757Y-88716370D01*
X175718751Y-88716377D01*
X175583058Y-88893217D01*
X175583052Y-88893226D01*
X175471595Y-89086273D01*
X175471593Y-89086277D01*
X175386293Y-89292209D01*
X175386290Y-89292219D01*
X175350978Y-89424008D01*
X175328597Y-89507534D01*
X175328594Y-89507547D01*
X175299501Y-89728533D01*
X175299500Y-89728549D01*
X175299500Y-89775500D01*
X175279815Y-89842539D01*
X175227011Y-89888294D01*
X175175500Y-89899500D01*
X172229602Y-89899500D01*
X172162563Y-89879815D01*
X172119117Y-89831795D01*
X172112284Y-89818385D01*
X171991971Y-89652786D01*
X171847213Y-89508028D01*
X171681613Y-89387715D01*
X171681612Y-89387714D01*
X171681610Y-89387713D01*
X171598213Y-89345220D01*
X171499223Y-89294781D01*
X171304534Y-89231522D01*
X171129995Y-89203878D01*
X171102352Y-89199500D01*
X170897648Y-89199500D01*
X170873329Y-89203351D01*
X170695465Y-89231522D01*
X170500776Y-89294781D01*
X170318386Y-89387715D01*
X170152786Y-89508028D01*
X170008028Y-89652786D01*
X169887715Y-89818386D01*
X169794781Y-90000776D01*
X169731522Y-90195465D01*
X169699500Y-90397648D01*
X164271990Y-90397648D01*
X164268477Y-90375466D01*
X164268476Y-90375464D01*
X164268476Y-90375461D01*
X164228965Y-90253861D01*
X164205220Y-90180781D01*
X164205218Y-90180778D01*
X164205218Y-90180776D01*
X164171503Y-90114607D01*
X164112287Y-89998390D01*
X164060849Y-89927591D01*
X163991971Y-89832786D01*
X163847213Y-89688028D01*
X163681614Y-89567715D01*
X163675006Y-89564348D01*
X163588917Y-89520483D01*
X163538123Y-89472511D01*
X163521328Y-89404690D01*
X163543865Y-89338555D01*
X163588917Y-89299516D01*
X163681610Y-89252287D01*
X163734904Y-89213567D01*
X163847213Y-89131971D01*
X163847215Y-89131968D01*
X163847219Y-89131966D01*
X163991966Y-88987219D01*
X163991968Y-88987215D01*
X163991971Y-88987213D01*
X164060262Y-88893217D01*
X164112287Y-88821610D01*
X164205220Y-88639219D01*
X164268477Y-88444534D01*
X164300500Y-88242352D01*
X164300500Y-88037648D01*
X164268477Y-87835466D01*
X164205220Y-87640781D01*
X164205218Y-87640778D01*
X164205218Y-87640776D01*
X164171503Y-87574607D01*
X164112287Y-87458390D01*
X164104556Y-87447749D01*
X163991971Y-87292786D01*
X163847213Y-87148028D01*
X163681614Y-87027715D01*
X163675006Y-87024348D01*
X163588917Y-86980483D01*
X163538123Y-86932511D01*
X163521328Y-86864690D01*
X163543865Y-86798555D01*
X163588917Y-86759516D01*
X163681610Y-86712287D01*
X163702770Y-86696913D01*
X163847213Y-86591971D01*
X163847215Y-86591968D01*
X163847219Y-86591966D01*
X163991966Y-86447219D01*
X163991968Y-86447215D01*
X163991971Y-86447213D01*
X164107349Y-86288406D01*
X164112287Y-86281610D01*
X164205220Y-86099219D01*
X164268477Y-85904534D01*
X164300500Y-85702352D01*
X164300500Y-85497648D01*
X164270428Y-85307781D01*
X164268477Y-85295465D01*
X164205218Y-85100776D01*
X164153869Y-85000000D01*
X164112287Y-84918390D01*
X164078195Y-84871466D01*
X163991971Y-84752786D01*
X163887734Y-84648549D01*
X175299500Y-84648549D01*
X175299500Y-84871450D01*
X175299501Y-84871466D01*
X175328594Y-85092452D01*
X175328595Y-85092457D01*
X175328596Y-85092463D01*
X175386290Y-85307780D01*
X175386293Y-85307790D01*
X175464935Y-85497648D01*
X175471595Y-85513726D01*
X175583052Y-85706774D01*
X175583057Y-85706780D01*
X175583058Y-85706782D01*
X175718751Y-85883622D01*
X175718757Y-85883629D01*
X175876370Y-86041242D01*
X175876376Y-86041247D01*
X176053226Y-86176948D01*
X176246274Y-86288405D01*
X176452219Y-86373710D01*
X176667537Y-86431404D01*
X176888543Y-86460500D01*
X176888550Y-86460500D01*
X177111450Y-86460500D01*
X177111457Y-86460500D01*
X177332463Y-86431404D01*
X177547781Y-86373710D01*
X177753726Y-86288405D01*
X177946774Y-86176948D01*
X178123624Y-86041247D01*
X178281247Y-85883624D01*
X178416948Y-85706774D01*
X178528405Y-85513726D01*
X178613710Y-85307781D01*
X178671404Y-85092463D01*
X178700500Y-84871457D01*
X178700500Y-84648543D01*
X178671404Y-84427537D01*
X178613710Y-84212219D01*
X178528405Y-84006274D01*
X178416948Y-83813226D01*
X178281247Y-83636376D01*
X178281242Y-83636370D01*
X178123624Y-83478752D01*
X178119268Y-83475410D01*
X178119267Y-83475409D01*
X177997406Y-83381902D01*
X181999500Y-83381902D01*
X181999500Y-83618097D01*
X182036446Y-83851368D01*
X182109433Y-84075996D01*
X182202452Y-84258555D01*
X182216657Y-84286433D01*
X182355483Y-84477510D01*
X182522490Y-84644517D01*
X182713567Y-84783343D01*
X182812991Y-84834002D01*
X182924003Y-84890566D01*
X182924005Y-84890566D01*
X182924008Y-84890568D01*
X183009623Y-84918386D01*
X183148631Y-84963553D01*
X183381903Y-85000500D01*
X183381908Y-85000500D01*
X183618097Y-85000500D01*
X183851368Y-84963553D01*
X183852870Y-84963065D01*
X184075992Y-84890568D01*
X184286433Y-84783343D01*
X184477510Y-84644517D01*
X184644517Y-84477510D01*
X184783343Y-84286433D01*
X184890568Y-84075992D01*
X184963553Y-83851368D01*
X184969594Y-83813226D01*
X185000500Y-83618097D01*
X185000500Y-83381947D01*
X186500000Y-83381947D01*
X186500000Y-83618052D01*
X186536934Y-83851247D01*
X186609897Y-84075802D01*
X186717087Y-84286174D01*
X186777338Y-84369104D01*
X186777340Y-84369105D01*
X187476212Y-83670233D01*
X187487482Y-83712292D01*
X187559890Y-83837708D01*
X187662292Y-83940110D01*
X187787708Y-84012518D01*
X187829765Y-84023787D01*
X187130893Y-84722658D01*
X187213828Y-84782914D01*
X187424197Y-84890102D01*
X187648752Y-84963065D01*
X187648751Y-84963065D01*
X187881948Y-85000000D01*
X188118052Y-85000000D01*
X188351247Y-84963065D01*
X188575802Y-84890102D01*
X188786163Y-84782918D01*
X188786169Y-84782914D01*
X188869104Y-84722658D01*
X188869105Y-84722658D01*
X188170233Y-84023787D01*
X188212292Y-84012518D01*
X188337708Y-83940110D01*
X188440110Y-83837708D01*
X188512518Y-83712292D01*
X188523787Y-83670234D01*
X189222658Y-84369105D01*
X189222658Y-84369104D01*
X189282914Y-84286169D01*
X189282918Y-84286163D01*
X189390102Y-84075802D01*
X189463065Y-83851247D01*
X189500000Y-83618052D01*
X189500000Y-83381947D01*
X189463065Y-83148752D01*
X189390102Y-82924197D01*
X189282914Y-82713828D01*
X189222658Y-82630894D01*
X189222658Y-82630893D01*
X188523787Y-83329765D01*
X188512518Y-83287708D01*
X188440110Y-83162292D01*
X188337708Y-83059890D01*
X188212292Y-82987482D01*
X188170234Y-82976212D01*
X188869105Y-82277340D01*
X188869104Y-82277338D01*
X188786174Y-82217087D01*
X188575802Y-82109897D01*
X188351247Y-82036934D01*
X188351248Y-82036934D01*
X188118052Y-82000000D01*
X187881948Y-82000000D01*
X187648752Y-82036934D01*
X187424197Y-82109897D01*
X187213830Y-82217084D01*
X187130894Y-82277340D01*
X187829766Y-82976212D01*
X187787708Y-82987482D01*
X187662292Y-83059890D01*
X187559890Y-83162292D01*
X187487482Y-83287708D01*
X187476212Y-83329765D01*
X186777340Y-82630894D01*
X186717084Y-82713830D01*
X186609897Y-82924197D01*
X186536934Y-83148752D01*
X186500000Y-83381947D01*
X185000500Y-83381947D01*
X185000500Y-83381902D01*
X184963553Y-83148631D01*
X184890566Y-82924003D01*
X184834002Y-82812991D01*
X184783343Y-82713567D01*
X184644517Y-82522490D01*
X184477510Y-82355483D01*
X184286433Y-82216657D01*
X184278826Y-82212781D01*
X184075996Y-82109433D01*
X183851368Y-82036446D01*
X183618097Y-81999500D01*
X183618092Y-81999500D01*
X183381908Y-81999500D01*
X183381903Y-81999500D01*
X183148631Y-82036446D01*
X182924003Y-82109433D01*
X182713566Y-82216657D01*
X182630047Y-82277338D01*
X182522490Y-82355483D01*
X182522488Y-82355485D01*
X182522487Y-82355485D01*
X182355485Y-82522487D01*
X182355485Y-82522488D01*
X182355483Y-82522490D01*
X182327667Y-82560776D01*
X182216657Y-82713566D01*
X182109433Y-82924003D01*
X182036446Y-83148631D01*
X181999500Y-83381902D01*
X177997406Y-83381902D01*
X177946783Y-83343058D01*
X177946777Y-83343054D01*
X177946774Y-83343052D01*
X177753726Y-83231595D01*
X177753722Y-83231593D01*
X177547790Y-83146293D01*
X177547783Y-83146291D01*
X177547781Y-83146290D01*
X177332463Y-83088596D01*
X177332457Y-83088595D01*
X177332452Y-83088594D01*
X177111466Y-83059501D01*
X177111463Y-83059500D01*
X177111457Y-83059500D01*
X176888543Y-83059500D01*
X176888537Y-83059500D01*
X176888533Y-83059501D01*
X176667547Y-83088594D01*
X176667540Y-83088595D01*
X176667537Y-83088596D01*
X176452219Y-83146290D01*
X176452209Y-83146293D01*
X176246277Y-83231593D01*
X176246273Y-83231595D01*
X176053226Y-83343052D01*
X176053217Y-83343058D01*
X175876377Y-83478751D01*
X175876370Y-83478757D01*
X175718757Y-83636370D01*
X175718751Y-83636377D01*
X175583058Y-83813217D01*
X175583052Y-83813226D01*
X175471595Y-84006273D01*
X175471593Y-84006277D01*
X175386293Y-84212209D01*
X175386290Y-84212219D01*
X175372089Y-84265220D01*
X175328597Y-84427534D01*
X175328594Y-84427547D01*
X175299501Y-84648533D01*
X175299500Y-84648549D01*
X163887734Y-84648549D01*
X163847213Y-84608028D01*
X163681614Y-84487715D01*
X163661587Y-84477511D01*
X163588917Y-84440483D01*
X163538123Y-84392511D01*
X163521328Y-84324690D01*
X163543865Y-84258555D01*
X163588917Y-84219516D01*
X163681610Y-84172287D01*
X163702770Y-84156913D01*
X163847213Y-84051971D01*
X163847215Y-84051968D01*
X163847219Y-84051966D01*
X163991966Y-83907219D01*
X163991968Y-83907215D01*
X163991971Y-83907213D01*
X164060262Y-83813217D01*
X164112287Y-83741610D01*
X164205220Y-83559219D01*
X164268477Y-83364534D01*
X164300500Y-83162352D01*
X164300500Y-82957648D01*
X164268477Y-82755466D01*
X164205220Y-82560781D01*
X164205218Y-82560778D01*
X164205218Y-82560776D01*
X164171503Y-82494607D01*
X164112287Y-82378390D01*
X164095644Y-82355483D01*
X163991971Y-82212786D01*
X163847213Y-82068028D01*
X163681614Y-81947715D01*
X163675006Y-81944348D01*
X163588917Y-81900483D01*
X163538123Y-81852511D01*
X163521328Y-81784690D01*
X163543865Y-81718555D01*
X163588917Y-81679516D01*
X163681610Y-81632287D01*
X163702770Y-81616913D01*
X163847213Y-81511971D01*
X163847215Y-81511968D01*
X163847219Y-81511966D01*
X163991966Y-81367219D01*
X163991968Y-81367215D01*
X163991971Y-81367213D01*
X164044732Y-81294590D01*
X164112287Y-81201610D01*
X164205220Y-81019219D01*
X164268477Y-80824534D01*
X164300500Y-80622352D01*
X164300500Y-80417648D01*
X164268477Y-80215466D01*
X164205220Y-80020781D01*
X164205218Y-80020778D01*
X164205218Y-80020776D01*
X164171503Y-79954607D01*
X164112287Y-79838390D01*
X164104556Y-79827749D01*
X163991971Y-79672786D01*
X163847213Y-79528028D01*
X163681614Y-79407715D01*
X163675006Y-79404348D01*
X163588917Y-79360483D01*
X163538123Y-79312511D01*
X163521328Y-79244690D01*
X163543865Y-79178555D01*
X163588917Y-79139516D01*
X163681610Y-79092287D01*
X163702770Y-79076913D01*
X163847213Y-78971971D01*
X163847215Y-78971968D01*
X163847219Y-78971966D01*
X163991966Y-78827219D01*
X163991968Y-78827215D01*
X163991971Y-78827213D01*
X164044732Y-78754590D01*
X164112287Y-78661610D01*
X164205220Y-78479219D01*
X164268477Y-78284534D01*
X164300500Y-78082352D01*
X164300500Y-77877648D01*
X164268477Y-77675466D01*
X164205220Y-77480781D01*
X164205218Y-77480778D01*
X164205218Y-77480776D01*
X164171503Y-77414607D01*
X164112287Y-77298390D01*
X164104556Y-77287749D01*
X163991971Y-77132786D01*
X163847213Y-76988028D01*
X163681614Y-76867715D01*
X163633477Y-76843188D01*
X163588917Y-76820483D01*
X163538123Y-76772511D01*
X163521328Y-76704690D01*
X163543865Y-76638555D01*
X163588917Y-76599516D01*
X163681610Y-76552287D01*
X163702770Y-76536913D01*
X163847213Y-76431971D01*
X163847215Y-76431968D01*
X163847219Y-76431966D01*
X163991966Y-76287219D01*
X163991968Y-76287215D01*
X163991971Y-76287213D01*
X164112284Y-76121614D01*
X164112285Y-76121613D01*
X164112287Y-76121610D01*
X164119117Y-76108204D01*
X164167091Y-76057409D01*
X164229602Y-76040500D01*
X171800420Y-76040500D01*
X171867459Y-76060185D01*
X171913214Y-76112989D01*
X171914981Y-76117048D01*
X171971590Y-76253717D01*
X171971593Y-76253722D01*
X171971595Y-76253726D01*
X172083052Y-76446774D01*
X172083057Y-76446780D01*
X172083058Y-76446782D01*
X172218751Y-76623622D01*
X172218757Y-76623629D01*
X172376370Y-76781242D01*
X172376377Y-76781248D01*
X172486847Y-76866014D01*
X172553226Y-76916948D01*
X172746274Y-77028405D01*
X172952219Y-77113710D01*
X173167537Y-77171404D01*
X173388543Y-77200500D01*
X173388550Y-77200500D01*
X173611450Y-77200500D01*
X173611457Y-77200500D01*
X173832463Y-77171404D01*
X174047781Y-77113710D01*
X174253726Y-77028405D01*
X174446774Y-76916948D01*
X174623624Y-76781247D01*
X174781247Y-76623624D01*
X174916948Y-76446774D01*
X175028405Y-76253726D01*
X175113710Y-76047781D01*
X175171404Y-75832463D01*
X175200500Y-75611457D01*
X175200500Y-75388549D01*
X176879500Y-75388549D01*
X176879500Y-75611450D01*
X176879501Y-75611466D01*
X176908594Y-75832452D01*
X176908595Y-75832457D01*
X176908596Y-75832463D01*
X176966290Y-76047780D01*
X176966293Y-76047790D01*
X177051591Y-76253717D01*
X177051595Y-76253726D01*
X177163052Y-76446774D01*
X177163057Y-76446780D01*
X177163058Y-76446782D01*
X177298751Y-76623622D01*
X177298757Y-76623629D01*
X177456370Y-76781242D01*
X177456377Y-76781248D01*
X177566847Y-76866014D01*
X177633226Y-76916948D01*
X177826274Y-77028405D01*
X178032219Y-77113710D01*
X178247537Y-77171404D01*
X178468543Y-77200500D01*
X178468550Y-77200500D01*
X178691450Y-77200500D01*
X178691457Y-77200500D01*
X178912463Y-77171404D01*
X179127781Y-77113710D01*
X179204458Y-77081948D01*
X179273925Y-77074479D01*
X179336404Y-77105753D01*
X179339591Y-77108827D01*
X179412284Y-77181520D01*
X179412286Y-77181521D01*
X179412290Y-77181524D01*
X179549209Y-77260573D01*
X179549216Y-77260577D01*
X179661019Y-77290534D01*
X179701942Y-77301500D01*
X179701943Y-77301500D01*
X186712331Y-77301500D01*
X186712347Y-77301501D01*
X186719943Y-77301501D01*
X186878054Y-77301501D01*
X186878057Y-77301501D01*
X187030785Y-77260577D01*
X187080904Y-77231639D01*
X187167716Y-77181520D01*
X187279520Y-77069716D01*
X187279520Y-77069714D01*
X187289728Y-77059507D01*
X187289730Y-77059504D01*
X187475797Y-76873436D01*
X187537118Y-76839953D01*
X187601794Y-76843188D01*
X187672049Y-76866015D01*
X187889778Y-76900500D01*
X187889779Y-76900500D01*
X188110221Y-76900500D01*
X188110222Y-76900500D01*
X188327951Y-76866015D01*
X188537606Y-76797895D01*
X188734022Y-76697815D01*
X188912365Y-76568242D01*
X189068242Y-76412365D01*
X189197815Y-76234022D01*
X189297895Y-76037606D01*
X189366015Y-75827951D01*
X189400500Y-75610222D01*
X189400500Y-75389778D01*
X189366015Y-75172049D01*
X189331955Y-75067221D01*
X189297896Y-74962396D01*
X189297895Y-74962393D01*
X189263237Y-74894375D01*
X189197815Y-74765978D01*
X189181260Y-74743192D01*
X189068247Y-74587641D01*
X189068243Y-74587636D01*
X188912363Y-74431756D01*
X188912358Y-74431752D01*
X188734025Y-74302187D01*
X188734024Y-74302186D01*
X188734022Y-74302185D01*
X188671096Y-74270122D01*
X188537606Y-74202104D01*
X188537603Y-74202103D01*
X188327952Y-74133985D01*
X188219086Y-74116742D01*
X188110222Y-74099500D01*
X187889778Y-74099500D01*
X187817201Y-74110995D01*
X187672047Y-74133985D01*
X187462396Y-74202103D01*
X187462393Y-74202104D01*
X187265974Y-74302187D01*
X187087641Y-74431752D01*
X187087636Y-74431756D01*
X187037075Y-74482317D01*
X186975752Y-74515801D01*
X186906060Y-74510816D01*
X186850127Y-74468945D01*
X186833213Y-74437968D01*
X186803354Y-74357913D01*
X186803350Y-74357906D01*
X186717190Y-74242812D01*
X186717187Y-74242809D01*
X186602093Y-74156649D01*
X186602086Y-74156645D01*
X186467379Y-74106403D01*
X186467372Y-74106401D01*
X186407844Y-74100000D01*
X185710000Y-74100000D01*
X185710000Y-75124722D01*
X185633694Y-75080667D01*
X185519244Y-75050000D01*
X185400756Y-75050000D01*
X185286306Y-75080667D01*
X185210000Y-75124722D01*
X185210000Y-74100000D01*
X184512155Y-74100000D01*
X184452627Y-74106401D01*
X184452620Y-74106403D01*
X184317913Y-74156645D01*
X184317906Y-74156649D01*
X184202812Y-74242809D01*
X184202809Y-74242812D01*
X184116649Y-74357906D01*
X184116645Y-74357913D01*
X184066403Y-74492620D01*
X184066401Y-74492627D01*
X184060000Y-74552155D01*
X184060000Y-75250000D01*
X185084722Y-75250000D01*
X185040667Y-75326306D01*
X185010000Y-75440756D01*
X185010000Y-75559244D01*
X185040667Y-75673694D01*
X185084722Y-75750000D01*
X184060000Y-75750000D01*
X184060000Y-75976500D01*
X184040315Y-76043539D01*
X183987511Y-76089294D01*
X183936000Y-76100500D01*
X180341183Y-76100500D01*
X180274144Y-76080815D01*
X180228389Y-76028011D01*
X180218445Y-75958853D01*
X180221404Y-75944423D01*
X180251404Y-75832463D01*
X180280500Y-75611457D01*
X180280500Y-75388543D01*
X180251404Y-75167537D01*
X180193710Y-74952219D01*
X180108405Y-74746274D01*
X179996948Y-74553226D01*
X179861247Y-74376376D01*
X179861242Y-74376370D01*
X179703629Y-74218757D01*
X179703622Y-74218751D01*
X179526782Y-74083058D01*
X179526780Y-74083057D01*
X179526774Y-74083052D01*
X179333726Y-73971595D01*
X179333722Y-73971593D01*
X179127790Y-73886293D01*
X179127783Y-73886291D01*
X179127781Y-73886290D01*
X178912463Y-73828596D01*
X178912457Y-73828595D01*
X178912452Y-73828594D01*
X178691466Y-73799501D01*
X178691463Y-73799500D01*
X178691457Y-73799500D01*
X178468543Y-73799500D01*
X178468537Y-73799500D01*
X178468533Y-73799501D01*
X178247547Y-73828594D01*
X178247540Y-73828595D01*
X178247537Y-73828596D01*
X178032219Y-73886290D01*
X178032209Y-73886293D01*
X177826277Y-73971593D01*
X177826273Y-73971595D01*
X177633226Y-74083052D01*
X177633217Y-74083058D01*
X177456377Y-74218751D01*
X177456370Y-74218757D01*
X177298757Y-74376370D01*
X177298751Y-74376377D01*
X177163058Y-74553217D01*
X177163052Y-74553226D01*
X177051595Y-74746273D01*
X177051593Y-74746277D01*
X176966293Y-74952209D01*
X176966290Y-74952219D01*
X176917190Y-75135466D01*
X176908597Y-75167534D01*
X176908594Y-75167547D01*
X176879501Y-75388533D01*
X176879500Y-75388549D01*
X175200500Y-75388549D01*
X175200500Y-75388543D01*
X175171404Y-75167537D01*
X175113710Y-74952219D01*
X175028405Y-74746274D01*
X174916948Y-74553226D01*
X174781247Y-74376376D01*
X174781242Y-74376370D01*
X174623629Y-74218757D01*
X174623622Y-74218751D01*
X174446782Y-74083058D01*
X174446780Y-74083057D01*
X174446774Y-74083052D01*
X174253726Y-73971595D01*
X174253722Y-73971593D01*
X174047790Y-73886293D01*
X174047783Y-73886291D01*
X174047781Y-73886290D01*
X173832463Y-73828596D01*
X173832457Y-73828595D01*
X173832452Y-73828594D01*
X173611466Y-73799501D01*
X173611463Y-73799500D01*
X173611457Y-73799500D01*
X173388543Y-73799500D01*
X173388537Y-73799500D01*
X173388533Y-73799501D01*
X173167547Y-73828594D01*
X173167540Y-73828595D01*
X173167537Y-73828596D01*
X172952219Y-73886290D01*
X172952209Y-73886293D01*
X172746277Y-73971593D01*
X172746273Y-73971595D01*
X172553226Y-74083052D01*
X172553217Y-74083058D01*
X172376377Y-74218751D01*
X172376370Y-74218757D01*
X172218757Y-74376370D01*
X172218751Y-74376377D01*
X172083058Y-74553217D01*
X172083052Y-74553226D01*
X171971595Y-74746273D01*
X171971593Y-74746277D01*
X171964686Y-74762953D01*
X171920845Y-74817356D01*
X171854551Y-74839421D01*
X171850125Y-74839500D01*
X164229602Y-74839500D01*
X164162563Y-74819815D01*
X164119117Y-74771795D01*
X164112284Y-74758385D01*
X163991971Y-74592786D01*
X163847213Y-74448028D01*
X163681613Y-74327715D01*
X163681612Y-74327714D01*
X163681610Y-74327713D01*
X163624653Y-74298691D01*
X163499223Y-74234781D01*
X163304534Y-74171522D01*
X163129995Y-74143878D01*
X163102352Y-74139500D01*
X162897648Y-74139500D01*
X162873329Y-74143351D01*
X162695465Y-74171522D01*
X162500776Y-74234781D01*
X162318386Y-74327715D01*
X162152786Y-74448028D01*
X162008028Y-74592786D01*
X161887715Y-74758386D01*
X161794781Y-74940776D01*
X161731522Y-75135465D01*
X161713382Y-75250000D01*
X161699500Y-75337648D01*
X161699500Y-75542352D01*
X161703878Y-75569995D01*
X161731522Y-75744534D01*
X161794781Y-75939223D01*
X161840022Y-76028011D01*
X161883320Y-76112989D01*
X161887715Y-76121613D01*
X162008028Y-76287213D01*
X162152786Y-76431971D01*
X162307749Y-76544556D01*
X162318390Y-76552287D01*
X162409840Y-76598883D01*
X162411080Y-76599515D01*
X162461876Y-76647490D01*
X162478671Y-76715311D01*
X162456134Y-76781446D01*
X162411080Y-76820485D01*
X162318386Y-76867715D01*
X162152786Y-76988028D01*
X162008028Y-77132786D01*
X161887715Y-77298386D01*
X161794781Y-77480776D01*
X161731522Y-77675465D01*
X161699500Y-77877648D01*
X161699500Y-78082351D01*
X161731522Y-78284534D01*
X161794781Y-78479223D01*
X161887715Y-78661613D01*
X162008028Y-78827213D01*
X162152786Y-78971971D01*
X162307749Y-79084556D01*
X162318390Y-79092287D01*
X162409840Y-79138883D01*
X162411080Y-79139515D01*
X162461876Y-79187490D01*
X162478671Y-79255311D01*
X162456134Y-79321446D01*
X162411080Y-79360485D01*
X162318386Y-79407715D01*
X162152786Y-79528028D01*
X162008028Y-79672786D01*
X161887715Y-79838386D01*
X161794781Y-80020776D01*
X161731522Y-80215465D01*
X161699500Y-80417648D01*
X161699500Y-80622351D01*
X161731522Y-80824534D01*
X161794781Y-81019223D01*
X161887715Y-81201613D01*
X162008028Y-81367213D01*
X162152786Y-81511971D01*
X162307749Y-81624556D01*
X162318390Y-81632287D01*
X162409840Y-81678883D01*
X162411080Y-81679515D01*
X162461876Y-81727490D01*
X162478671Y-81795311D01*
X162456134Y-81861446D01*
X162411080Y-81900485D01*
X162318386Y-81947715D01*
X162152786Y-82068028D01*
X162008028Y-82212786D01*
X161887715Y-82378386D01*
X161794781Y-82560776D01*
X161731522Y-82755465D01*
X161699500Y-82957648D01*
X161699500Y-83162351D01*
X161731522Y-83364534D01*
X161794781Y-83559223D01*
X161887715Y-83741613D01*
X162008028Y-83907213D01*
X162152786Y-84051971D01*
X162307749Y-84164556D01*
X162318390Y-84172287D01*
X162396741Y-84212209D01*
X162411080Y-84219515D01*
X162461876Y-84267490D01*
X162478671Y-84335311D01*
X162456134Y-84401446D01*
X162411080Y-84440485D01*
X162318386Y-84487715D01*
X162152786Y-84608028D01*
X162008028Y-84752786D01*
X161887715Y-84918386D01*
X161794781Y-85100776D01*
X161731522Y-85295465D01*
X161699500Y-85497648D01*
X161699500Y-85702352D01*
X161700202Y-85706782D01*
X161731522Y-85904534D01*
X161794781Y-86099223D01*
X161887715Y-86281613D01*
X162008028Y-86447213D01*
X162152786Y-86591971D01*
X162307749Y-86704556D01*
X162318390Y-86712287D01*
X162409840Y-86758883D01*
X162411080Y-86759515D01*
X162461876Y-86807490D01*
X162478671Y-86875311D01*
X162456134Y-86941446D01*
X162411080Y-86980485D01*
X162318386Y-87027715D01*
X162152786Y-87148028D01*
X162008028Y-87292786D01*
X161887715Y-87458386D01*
X161794781Y-87640776D01*
X161731522Y-87835465D01*
X161699500Y-88037648D01*
X161699500Y-88242351D01*
X161731522Y-88444534D01*
X161794781Y-88639223D01*
X161887715Y-88821613D01*
X162008028Y-88987213D01*
X162152786Y-89131971D01*
X162300790Y-89239500D01*
X162318390Y-89252287D01*
X162396741Y-89292209D01*
X162411080Y-89299515D01*
X162461876Y-89347490D01*
X162478671Y-89415311D01*
X162456134Y-89481446D01*
X162411080Y-89520485D01*
X162318386Y-89567715D01*
X162152786Y-89688028D01*
X162008028Y-89832786D01*
X161887715Y-89998386D01*
X161794781Y-90180776D01*
X161731524Y-90375461D01*
X161731523Y-90375464D01*
X161731523Y-90375466D01*
X161699500Y-90577648D01*
X161699500Y-90782352D01*
X161700202Y-90786782D01*
X161731522Y-90984534D01*
X161794781Y-91179223D01*
X161816913Y-91222658D01*
X161880380Y-91347219D01*
X161887715Y-91361613D01*
X162008028Y-91527213D01*
X162152786Y-91671971D01*
X162285618Y-91768477D01*
X162318390Y-91792287D01*
X162409840Y-91838883D01*
X162411080Y-91839515D01*
X162461876Y-91887490D01*
X162478671Y-91955311D01*
X162456134Y-92021446D01*
X162411080Y-92060485D01*
X162318386Y-92107715D01*
X162152786Y-92228028D01*
X162008028Y-92372786D01*
X161887715Y-92538386D01*
X161794781Y-92720776D01*
X161731522Y-92915465D01*
X161699500Y-93117648D01*
X161699500Y-93322351D01*
X161731522Y-93524534D01*
X161794781Y-93719223D01*
X161858691Y-93844653D01*
X161877674Y-93881908D01*
X161887715Y-93901613D01*
X162008028Y-94067213D01*
X162152786Y-94211971D01*
X162273950Y-94300000D01*
X162318390Y-94332287D01*
X162409840Y-94378883D01*
X162411080Y-94379515D01*
X162461876Y-94427490D01*
X162478671Y-94495311D01*
X162456134Y-94561446D01*
X162411080Y-94600485D01*
X162318386Y-94647715D01*
X162152786Y-94768028D01*
X162008028Y-94912786D01*
X161887715Y-95078386D01*
X161794781Y-95260776D01*
X161731522Y-95455465D01*
X161699500Y-95657648D01*
X161699500Y-95862351D01*
X161731522Y-96064534D01*
X161794781Y-96259223D01*
X161853114Y-96373706D01*
X161882513Y-96431405D01*
X161887715Y-96441613D01*
X162008028Y-96607213D01*
X162152786Y-96751971D01*
X162307749Y-96864556D01*
X162318390Y-96872287D01*
X162409840Y-96918883D01*
X162411080Y-96919515D01*
X162461876Y-96967490D01*
X162478671Y-97035311D01*
X162456134Y-97101446D01*
X162411080Y-97140485D01*
X162318386Y-97187715D01*
X162152786Y-97308028D01*
X162008028Y-97452786D01*
X161887715Y-97618386D01*
X161794781Y-97800776D01*
X161731522Y-97995465D01*
X161699500Y-98197648D01*
X161699500Y-98402351D01*
X161731522Y-98604534D01*
X161794781Y-98799223D01*
X161887715Y-98981613D01*
X162008028Y-99147213D01*
X162152786Y-99291971D01*
X162307749Y-99404556D01*
X162318390Y-99412287D01*
X162409840Y-99458883D01*
X162411080Y-99459515D01*
X162461876Y-99507490D01*
X162478671Y-99575311D01*
X162456134Y-99641446D01*
X162411080Y-99680485D01*
X162318386Y-99727715D01*
X162152786Y-99848028D01*
X162008028Y-99992786D01*
X161887715Y-100158386D01*
X161794781Y-100340776D01*
X161731522Y-100535465D01*
X161699500Y-100737648D01*
X161699500Y-100942351D01*
X161731522Y-101144534D01*
X161794781Y-101339223D01*
X161824568Y-101397682D01*
X161882513Y-101511405D01*
X161887715Y-101521613D01*
X162008028Y-101687213D01*
X162152786Y-101831971D01*
X162284350Y-101927556D01*
X162318390Y-101952287D01*
X162390424Y-101988990D01*
X162411629Y-101999795D01*
X162462425Y-102047770D01*
X162479220Y-102115591D01*
X162456682Y-102181726D01*
X162411629Y-102220765D01*
X162318650Y-102268140D01*
X162153105Y-102388417D01*
X162153104Y-102388417D01*
X162008417Y-102533104D01*
X162008417Y-102533105D01*
X161888140Y-102698650D01*
X161795244Y-102880970D01*
X161732009Y-103075586D01*
X161723391Y-103130000D01*
X162566988Y-103130000D01*
X162534075Y-103187007D01*
X162500000Y-103314174D01*
X162500000Y-103445826D01*
X162534075Y-103572993D01*
X162566988Y-103630000D01*
X161723391Y-103630000D01*
X161732009Y-103684413D01*
X161795244Y-103879029D01*
X161888140Y-104061349D01*
X162008417Y-104226894D01*
X162008417Y-104226895D01*
X162153104Y-104371582D01*
X162318652Y-104491861D01*
X162411628Y-104539234D01*
X162462425Y-104587208D01*
X162479220Y-104655029D01*
X162456683Y-104721164D01*
X162411630Y-104760203D01*
X162318388Y-104807713D01*
X162152786Y-104928028D01*
X162008028Y-105072786D01*
X161887715Y-105238386D01*
X161794781Y-105420776D01*
X161731524Y-105615461D01*
X161731523Y-105615464D01*
X161731523Y-105615466D01*
X161699500Y-105817648D01*
X161699500Y-106022352D01*
X161703878Y-106049995D01*
X161731522Y-106224534D01*
X161766588Y-106332452D01*
X161794780Y-106419219D01*
X161794782Y-106419223D01*
X161794784Y-106419229D01*
X161796647Y-106423728D01*
X161795694Y-106424122D01*
X161807670Y-106487868D01*
X161781397Y-106552610D01*
X161724292Y-106592870D01*
X161684288Y-106599500D01*
X151880097Y-106599500D01*
X151813058Y-106579815D01*
X151792416Y-106563181D01*
X149054077Y-103824842D01*
X149020592Y-103763519D01*
X149023828Y-103698841D01*
X149027673Y-103687007D01*
X149028477Y-103684534D01*
X149060500Y-103482352D01*
X149060500Y-103277648D01*
X149046144Y-103187007D01*
X149028477Y-103075465D01*
X148977963Y-102920000D01*
X148965220Y-102880781D01*
X148965218Y-102880778D01*
X148965218Y-102880776D01*
X148910910Y-102774192D01*
X148872287Y-102698390D01*
X148840111Y-102654103D01*
X148751971Y-102532786D01*
X148607213Y-102388028D01*
X148441614Y-102267715D01*
X148435006Y-102264348D01*
X148348917Y-102220483D01*
X148298123Y-102172511D01*
X148281328Y-102104690D01*
X148303865Y-102038555D01*
X148348917Y-101999516D01*
X148441610Y-101952287D01*
X148475650Y-101927556D01*
X148607213Y-101831971D01*
X148607215Y-101831968D01*
X148607219Y-101831966D01*
X148751966Y-101687219D01*
X148751968Y-101687215D01*
X148751971Y-101687213D01*
X148830375Y-101579297D01*
X148872287Y-101521610D01*
X148965220Y-101339219D01*
X149028477Y-101144534D01*
X149060500Y-100942352D01*
X149060500Y-100737648D01*
X149028477Y-100535466D01*
X149016953Y-100500000D01*
X148980491Y-100387780D01*
X148965220Y-100340781D01*
X148965218Y-100340778D01*
X148965218Y-100340776D01*
X148916402Y-100244970D01*
X148872287Y-100158390D01*
X148858471Y-100139374D01*
X148751971Y-99992786D01*
X148607213Y-99848028D01*
X148441614Y-99727715D01*
X148413845Y-99713566D01*
X148348917Y-99680483D01*
X148298123Y-99632511D01*
X148281328Y-99564690D01*
X148303865Y-99498555D01*
X148348917Y-99459516D01*
X148441610Y-99412287D01*
X148519795Y-99355483D01*
X148607213Y-99291971D01*
X148607215Y-99291968D01*
X148607219Y-99291966D01*
X148751966Y-99147219D01*
X148751968Y-99147215D01*
X148751971Y-99147213D01*
X148832446Y-99036447D01*
X148872287Y-98981610D01*
X148965220Y-98799219D01*
X149028477Y-98604534D01*
X149060500Y-98402352D01*
X149060500Y-98197648D01*
X149028477Y-97995466D01*
X148965220Y-97800781D01*
X148965218Y-97800778D01*
X148965218Y-97800776D01*
X148929931Y-97731522D01*
X148872287Y-97618390D01*
X148864556Y-97607749D01*
X148751971Y-97452786D01*
X148607213Y-97308028D01*
X148441614Y-97187715D01*
X148435006Y-97184348D01*
X148348917Y-97140483D01*
X148298123Y-97092511D01*
X148281328Y-97024690D01*
X148303865Y-96958555D01*
X148348917Y-96919516D01*
X148441610Y-96872287D01*
X148462770Y-96856913D01*
X148607213Y-96751971D01*
X148607215Y-96751968D01*
X148607219Y-96751966D01*
X148751966Y-96607219D01*
X148751968Y-96607215D01*
X148751971Y-96607213D01*
X148816920Y-96517817D01*
X148872287Y-96441610D01*
X148965220Y-96259219D01*
X149028477Y-96064534D01*
X149060500Y-95862352D01*
X149060500Y-95657648D01*
X149028477Y-95455466D01*
X149027326Y-95451925D01*
X148972551Y-95283343D01*
X148965220Y-95260781D01*
X148965218Y-95260778D01*
X148965218Y-95260776D01*
X148931503Y-95194607D01*
X148872287Y-95078390D01*
X148848969Y-95046295D01*
X148751971Y-94912786D01*
X148607213Y-94768028D01*
X148441614Y-94647715D01*
X148435006Y-94644348D01*
X148348917Y-94600483D01*
X148298123Y-94552511D01*
X148281328Y-94484690D01*
X148303865Y-94418555D01*
X148348917Y-94379516D01*
X148441610Y-94332287D01*
X148530108Y-94267990D01*
X148607213Y-94211971D01*
X148607215Y-94211968D01*
X148607219Y-94211966D01*
X148751966Y-94067219D01*
X148751968Y-94067215D01*
X148751971Y-94067213D01*
X148830351Y-93959330D01*
X148872287Y-93901610D01*
X148965220Y-93719219D01*
X149028477Y-93524534D01*
X149060500Y-93322352D01*
X149060500Y-93117648D01*
X149028477Y-92915466D01*
X149028476Y-92915464D01*
X148983596Y-92777338D01*
X148965220Y-92720781D01*
X148965218Y-92720778D01*
X148965218Y-92720776D01*
X148917568Y-92627259D01*
X148872287Y-92538390D01*
X148845099Y-92500968D01*
X148751971Y-92372786D01*
X148607213Y-92228028D01*
X148441614Y-92107715D01*
X148435006Y-92104348D01*
X148348917Y-92060483D01*
X148298123Y-92012511D01*
X148281328Y-91944690D01*
X148303865Y-91878555D01*
X148348917Y-91839516D01*
X148441610Y-91792287D01*
X148474382Y-91768477D01*
X148607213Y-91671971D01*
X148607215Y-91671968D01*
X148607219Y-91671966D01*
X148751966Y-91527219D01*
X148751968Y-91527215D01*
X148751971Y-91527213D01*
X148805376Y-91453706D01*
X148872287Y-91361610D01*
X148965220Y-91179219D01*
X149028477Y-90984534D01*
X149060500Y-90782352D01*
X149060500Y-90577648D01*
X149028477Y-90375466D01*
X149028476Y-90375464D01*
X149028476Y-90375461D01*
X148988965Y-90253861D01*
X148965220Y-90180781D01*
X148965218Y-90180778D01*
X148965218Y-90180776D01*
X148931503Y-90114607D01*
X148872287Y-89998390D01*
X148820849Y-89927591D01*
X148751971Y-89832786D01*
X148607213Y-89688028D01*
X148441614Y-89567715D01*
X148435006Y-89564348D01*
X148348917Y-89520483D01*
X148298123Y-89472511D01*
X148281328Y-89404690D01*
X148303865Y-89338555D01*
X148348917Y-89299516D01*
X148441610Y-89252287D01*
X148494904Y-89213567D01*
X148607213Y-89131971D01*
X148607215Y-89131968D01*
X148607219Y-89131966D01*
X148751966Y-88987219D01*
X148751968Y-88987215D01*
X148751971Y-88987213D01*
X148820262Y-88893217D01*
X148872287Y-88821610D01*
X148965220Y-88639219D01*
X149028477Y-88444534D01*
X149060500Y-88242352D01*
X149060500Y-88037648D01*
X149028477Y-87835466D01*
X148965220Y-87640781D01*
X148965218Y-87640778D01*
X148965218Y-87640776D01*
X148931503Y-87574607D01*
X148872287Y-87458390D01*
X148864556Y-87447749D01*
X148751971Y-87292786D01*
X148607213Y-87148028D01*
X148441614Y-87027715D01*
X148435006Y-87024348D01*
X148348917Y-86980483D01*
X148298123Y-86932511D01*
X148281328Y-86864690D01*
X148303865Y-86798555D01*
X148348917Y-86759516D01*
X148441610Y-86712287D01*
X148462770Y-86696913D01*
X148607213Y-86591971D01*
X148607215Y-86591968D01*
X148607219Y-86591966D01*
X148751966Y-86447219D01*
X148751968Y-86447215D01*
X148751971Y-86447213D01*
X148867349Y-86288406D01*
X148872287Y-86281610D01*
X148965220Y-86099219D01*
X149028477Y-85904534D01*
X149060500Y-85702352D01*
X149060500Y-85497648D01*
X149030428Y-85307781D01*
X149028477Y-85295465D01*
X148965218Y-85100776D01*
X148913869Y-85000000D01*
X148872287Y-84918390D01*
X148838195Y-84871466D01*
X148751971Y-84752786D01*
X148607213Y-84608028D01*
X148441614Y-84487715D01*
X148421587Y-84477511D01*
X148348917Y-84440483D01*
X148298123Y-84392511D01*
X148281328Y-84324690D01*
X148303865Y-84258555D01*
X148348917Y-84219516D01*
X148441610Y-84172287D01*
X148462770Y-84156913D01*
X148607213Y-84051971D01*
X148607215Y-84051968D01*
X148607219Y-84051966D01*
X148751966Y-83907219D01*
X148751968Y-83907215D01*
X148751971Y-83907213D01*
X148820262Y-83813217D01*
X148872287Y-83741610D01*
X148965220Y-83559219D01*
X149028477Y-83364534D01*
X149060500Y-83162352D01*
X149060500Y-82957648D01*
X149028477Y-82755466D01*
X148965220Y-82560781D01*
X148965218Y-82560778D01*
X148965218Y-82560776D01*
X148931503Y-82494607D01*
X148872287Y-82378390D01*
X148855644Y-82355483D01*
X148751971Y-82212786D01*
X148607213Y-82068028D01*
X148441614Y-81947715D01*
X148435006Y-81944348D01*
X148348917Y-81900483D01*
X148298123Y-81852511D01*
X148281328Y-81784690D01*
X148303865Y-81718555D01*
X148348917Y-81679516D01*
X148441610Y-81632287D01*
X148462770Y-81616913D01*
X148607213Y-81511971D01*
X148607215Y-81511968D01*
X148607219Y-81511966D01*
X148751966Y-81367219D01*
X148751968Y-81367215D01*
X148751971Y-81367213D01*
X148804732Y-81294590D01*
X148872287Y-81201610D01*
X148965220Y-81019219D01*
X149028477Y-80824534D01*
X149060500Y-80622352D01*
X149060500Y-80417648D01*
X149028477Y-80215466D01*
X148965220Y-80020781D01*
X148965218Y-80020778D01*
X148965218Y-80020776D01*
X148931503Y-79954607D01*
X148872287Y-79838390D01*
X148864556Y-79827749D01*
X148751971Y-79672786D01*
X148607213Y-79528028D01*
X148441614Y-79407715D01*
X148435006Y-79404348D01*
X148348917Y-79360483D01*
X148298123Y-79312511D01*
X148281328Y-79244690D01*
X148303865Y-79178555D01*
X148348917Y-79139516D01*
X148441610Y-79092287D01*
X148462770Y-79076913D01*
X148607213Y-78971971D01*
X148607215Y-78971968D01*
X148607219Y-78971966D01*
X148751966Y-78827219D01*
X148751968Y-78827215D01*
X148751971Y-78827213D01*
X148804732Y-78754590D01*
X148872287Y-78661610D01*
X148965220Y-78479219D01*
X149028477Y-78284534D01*
X149060500Y-78082352D01*
X149060500Y-77877648D01*
X149028477Y-77675466D01*
X148965220Y-77480781D01*
X148965218Y-77480778D01*
X148965218Y-77480776D01*
X148931503Y-77414607D01*
X148872287Y-77298390D01*
X148864556Y-77287749D01*
X148751971Y-77132786D01*
X148607213Y-76988028D01*
X148441614Y-76867715D01*
X148393477Y-76843188D01*
X148348917Y-76820483D01*
X148298123Y-76772511D01*
X148281328Y-76704690D01*
X148303865Y-76638555D01*
X148348917Y-76599516D01*
X148441610Y-76552287D01*
X148462770Y-76536913D01*
X148607213Y-76431971D01*
X148607215Y-76431968D01*
X148607219Y-76431966D01*
X148751966Y-76287219D01*
X148751968Y-76287215D01*
X148751971Y-76287213D01*
X148804732Y-76214590D01*
X148872287Y-76121610D01*
X148965220Y-75939219D01*
X149028477Y-75744534D01*
X149060500Y-75542352D01*
X149060500Y-75337648D01*
X149028477Y-75135466D01*
X148965220Y-74940781D01*
X148965218Y-74940778D01*
X148965218Y-74940776D01*
X148931503Y-74874607D01*
X148872287Y-74758390D01*
X148863484Y-74746273D01*
X148751971Y-74592786D01*
X148607213Y-74448028D01*
X148441613Y-74327715D01*
X148441612Y-74327714D01*
X148441610Y-74327713D01*
X148384653Y-74298691D01*
X148259223Y-74234781D01*
X148064534Y-74171522D01*
X147889995Y-74143878D01*
X147862352Y-74139500D01*
X147657648Y-74139500D01*
X147633329Y-74143351D01*
X147455465Y-74171522D01*
X147260776Y-74234781D01*
X147078386Y-74327715D01*
X146912786Y-74448028D01*
X146768028Y-74592786D01*
X146647715Y-74758386D01*
X146554781Y-74940776D01*
X146491522Y-75135465D01*
X146473382Y-75250000D01*
X146459500Y-75337648D01*
X146459500Y-75542352D01*
X146463878Y-75569995D01*
X146491522Y-75744534D01*
X146554781Y-75939223D01*
X146600022Y-76028011D01*
X146643320Y-76112989D01*
X146647715Y-76121613D01*
X146768028Y-76287213D01*
X146912786Y-76431971D01*
X147067749Y-76544556D01*
X147078390Y-76552287D01*
X147169840Y-76598883D01*
X147171080Y-76599515D01*
X147221876Y-76647490D01*
X147238671Y-76715311D01*
X147216134Y-76781446D01*
X147171080Y-76820485D01*
X147078386Y-76867715D01*
X146912786Y-76988028D01*
X146768028Y-77132786D01*
X146647715Y-77298386D01*
X146554781Y-77480776D01*
X146491522Y-77675465D01*
X146459500Y-77877648D01*
X146459500Y-78082351D01*
X146491522Y-78284534D01*
X146554781Y-78479223D01*
X146647715Y-78661613D01*
X146768028Y-78827213D01*
X146912786Y-78971971D01*
X147067749Y-79084556D01*
X147078390Y-79092287D01*
X147169840Y-79138883D01*
X147171080Y-79139515D01*
X147221876Y-79187490D01*
X147238671Y-79255311D01*
X147216134Y-79321446D01*
X147171080Y-79360485D01*
X147078386Y-79407715D01*
X146912786Y-79528028D01*
X146768028Y-79672786D01*
X146647715Y-79838386D01*
X146554781Y-80020776D01*
X146491522Y-80215465D01*
X146459500Y-80417648D01*
X146459500Y-80622351D01*
X146491522Y-80824534D01*
X146554781Y-81019223D01*
X146647715Y-81201613D01*
X146768028Y-81367213D01*
X146912786Y-81511971D01*
X147067749Y-81624556D01*
X147078390Y-81632287D01*
X147169840Y-81678883D01*
X147171080Y-81679515D01*
X147221876Y-81727490D01*
X147238671Y-81795311D01*
X147216134Y-81861446D01*
X147171080Y-81900485D01*
X147078386Y-81947715D01*
X146912786Y-82068028D01*
X146768028Y-82212786D01*
X146647715Y-82378386D01*
X146554781Y-82560776D01*
X146491522Y-82755465D01*
X146459500Y-82957648D01*
X146459500Y-83162351D01*
X146491522Y-83364534D01*
X146554781Y-83559223D01*
X146647715Y-83741613D01*
X146768028Y-83907213D01*
X146912786Y-84051971D01*
X147067749Y-84164556D01*
X147078390Y-84172287D01*
X147156741Y-84212209D01*
X147171080Y-84219515D01*
X147221876Y-84267490D01*
X147238671Y-84335311D01*
X147216134Y-84401446D01*
X147171080Y-84440485D01*
X147078386Y-84487715D01*
X146912786Y-84608028D01*
X146768028Y-84752786D01*
X146647715Y-84918386D01*
X146554781Y-85100776D01*
X146491522Y-85295465D01*
X146459500Y-85497648D01*
X146459500Y-85702352D01*
X146460202Y-85706782D01*
X146491522Y-85904534D01*
X146554781Y-86099223D01*
X146647715Y-86281613D01*
X146768028Y-86447213D01*
X146912786Y-86591971D01*
X147067749Y-86704556D01*
X147078390Y-86712287D01*
X147169840Y-86758883D01*
X147171080Y-86759515D01*
X147221876Y-86807490D01*
X147238671Y-86875311D01*
X147216134Y-86941446D01*
X147171080Y-86980485D01*
X147078386Y-87027715D01*
X146912786Y-87148028D01*
X146768028Y-87292786D01*
X146647715Y-87458386D01*
X146554781Y-87640776D01*
X146491522Y-87835465D01*
X146459500Y-88037648D01*
X146459500Y-88242351D01*
X146491522Y-88444534D01*
X146554781Y-88639223D01*
X146647715Y-88821613D01*
X146768028Y-88987213D01*
X146912786Y-89131971D01*
X147060790Y-89239500D01*
X147078390Y-89252287D01*
X147156741Y-89292209D01*
X147171080Y-89299515D01*
X147221876Y-89347490D01*
X147238671Y-89415311D01*
X147216134Y-89481446D01*
X147171080Y-89520485D01*
X147078386Y-89567715D01*
X146912786Y-89688028D01*
X146768028Y-89832786D01*
X146647715Y-89998386D01*
X146554781Y-90180776D01*
X146491524Y-90375461D01*
X146491523Y-90375464D01*
X146491523Y-90375466D01*
X146459500Y-90577648D01*
X146459500Y-90782352D01*
X146460202Y-90786782D01*
X146491522Y-90984534D01*
X146554781Y-91179223D01*
X146576913Y-91222658D01*
X146640380Y-91347219D01*
X146647715Y-91361613D01*
X146768028Y-91527213D01*
X146912786Y-91671971D01*
X147045618Y-91768477D01*
X147078390Y-91792287D01*
X147169840Y-91838883D01*
X147171080Y-91839515D01*
X147221876Y-91887490D01*
X147238671Y-91955311D01*
X147216134Y-92021446D01*
X147171080Y-92060485D01*
X147078386Y-92107715D01*
X146912786Y-92228028D01*
X146768030Y-92372784D01*
X146698575Y-92468384D01*
X146643245Y-92511051D01*
X146598256Y-92519500D01*
X136650034Y-92519500D01*
X136582995Y-92499815D01*
X136581143Y-92498602D01*
X136502868Y-92446300D01*
X136502859Y-92446295D01*
X136348082Y-92382184D01*
X136348074Y-92382182D01*
X136183771Y-92349500D01*
X136183767Y-92349500D01*
X136016233Y-92349500D01*
X136016228Y-92349500D01*
X135851925Y-92382182D01*
X135851917Y-92382184D01*
X135697140Y-92446295D01*
X135697134Y-92446298D01*
X135686206Y-92453601D01*
X135619529Y-92474480D01*
X135617313Y-92474500D01*
X128608543Y-92474500D01*
X128487378Y-92498602D01*
X128482864Y-92499500D01*
X128468380Y-92502381D01*
X128468379Y-92502381D01*
X128336348Y-92557070D01*
X128217517Y-92636469D01*
X128217516Y-92636470D01*
X119105806Y-101748181D01*
X119044483Y-101781666D01*
X119018125Y-101784500D01*
X118870634Y-101784500D01*
X118830681Y-101790828D01*
X118694101Y-101812460D01*
X118694098Y-101812460D01*
X118524121Y-101867689D01*
X118524118Y-101867691D01*
X118364867Y-101948833D01*
X118220270Y-102053890D01*
X118093890Y-102180270D01*
X117988833Y-102324867D01*
X117907691Y-102484118D01*
X117907689Y-102484121D01*
X117852460Y-102654098D01*
X117852460Y-102654101D01*
X117824500Y-102830634D01*
X117555499Y-102830634D01*
X117555499Y-102419654D01*
X117555499Y-102419653D01*
X117555499Y-102419645D01*
X117549174Y-102350033D01*
X117549171Y-102350022D01*
X117499252Y-102189824D01*
X117499250Y-102189820D01*
X117412443Y-102046222D01*
X117412439Y-102046217D01*
X117293782Y-101927560D01*
X117293777Y-101927556D01*
X117150180Y-101840750D01*
X117150179Y-101840749D01*
X117150178Y-101840749D01*
X116989971Y-101790827D01*
X116989969Y-101790826D01*
X116989967Y-101790826D01*
X116941221Y-101786396D01*
X116920347Y-101784500D01*
X116920344Y-101784500D01*
X115919645Y-101784500D01*
X115850033Y-101790825D01*
X115850022Y-101790828D01*
X115689824Y-101840747D01*
X115689820Y-101840749D01*
X115546222Y-101927556D01*
X115546217Y-101927560D01*
X115427560Y-102046217D01*
X115427556Y-102046222D01*
X115340750Y-102189819D01*
X115290826Y-102350032D01*
X115284500Y-102419655D01*
X113300500Y-102419655D01*
X113300500Y-70104395D01*
X119110000Y-70104395D01*
X119110000Y-72035605D01*
X119110001Y-72035609D01*
X119112917Y-72078632D01*
X119112917Y-72078634D01*
X119159165Y-72264602D01*
X119216414Y-72380033D01*
X120480000Y-71116447D01*
X120480000Y-71122661D01*
X120507259Y-71224394D01*
X120559920Y-71315606D01*
X120634394Y-71390080D01*
X120725606Y-71442741D01*
X120827339Y-71470000D01*
X120833552Y-71470000D01*
X119569966Y-72733584D01*
X119685397Y-72790834D01*
X119871361Y-72837081D01*
X119871357Y-72837081D01*
X119914395Y-72839999D01*
X121845605Y-72839999D01*
X121845609Y-72839998D01*
X121888632Y-72837082D01*
X121888634Y-72837082D01*
X122074602Y-72790834D01*
X122190032Y-72733585D01*
X122190032Y-72733584D01*
X120926448Y-71470000D01*
X120932661Y-71470000D01*
X121034394Y-71442741D01*
X121125606Y-71390080D01*
X121200080Y-71315606D01*
X121252741Y-71224394D01*
X121280000Y-71122661D01*
X121280000Y-71116448D01*
X122543584Y-72380032D01*
X122543585Y-72380032D01*
X122600834Y-72264602D01*
X122647081Y-72078640D01*
X122649999Y-72035604D01*
X122649999Y-70953947D01*
X124189500Y-70953947D01*
X124189500Y-71186052D01*
X124219794Y-71416148D01*
X124279862Y-71640328D01*
X124368677Y-71854745D01*
X124368685Y-71854762D01*
X124484720Y-72055743D01*
X124484721Y-72055745D01*
X124626009Y-72239875D01*
X124626015Y-72239882D01*
X124790117Y-72403984D01*
X124790124Y-72403990D01*
X124974254Y-72545278D01*
X124974256Y-72545279D01*
X125175237Y-72661314D01*
X125175240Y-72661315D01*
X125175248Y-72661320D01*
X125389670Y-72750137D01*
X125613851Y-72810206D01*
X125817993Y-72837082D01*
X125840149Y-72839999D01*
X125843955Y-72840500D01*
X125843962Y-72840500D01*
X126076038Y-72840500D01*
X126076045Y-72840500D01*
X126306149Y-72810206D01*
X126530330Y-72750137D01*
X126744752Y-72661320D01*
X126945748Y-72545276D01*
X127129877Y-72403989D01*
X127293989Y-72239877D01*
X127435276Y-72055748D01*
X127446906Y-72035605D01*
X127551314Y-71854762D01*
X127551320Y-71854752D01*
X127640137Y-71640330D01*
X127700206Y-71416149D01*
X127730500Y-71186045D01*
X127730500Y-70953955D01*
X127730499Y-70953947D01*
X129269500Y-70953947D01*
X129269500Y-71186052D01*
X129299794Y-71416148D01*
X129359862Y-71640328D01*
X129448677Y-71854745D01*
X129448685Y-71854762D01*
X129564720Y-72055743D01*
X129564721Y-72055745D01*
X129706009Y-72239875D01*
X129706015Y-72239882D01*
X129870117Y-72403984D01*
X129870124Y-72403990D01*
X130054254Y-72545278D01*
X130054256Y-72545279D01*
X130255237Y-72661314D01*
X130255240Y-72661315D01*
X130255248Y-72661320D01*
X130469670Y-72750137D01*
X130693851Y-72810206D01*
X130897993Y-72837082D01*
X130920149Y-72839999D01*
X130923955Y-72840500D01*
X130923962Y-72840500D01*
X131156038Y-72840500D01*
X131156045Y-72840500D01*
X131386149Y-72810206D01*
X131610330Y-72750137D01*
X131824752Y-72661320D01*
X132025748Y-72545276D01*
X132209877Y-72403989D01*
X132373989Y-72239877D01*
X132515276Y-72055748D01*
X132526906Y-72035605D01*
X132631314Y-71854762D01*
X132631320Y-71854752D01*
X132720137Y-71640330D01*
X132780206Y-71416149D01*
X132810500Y-71186045D01*
X132810500Y-70953955D01*
X132810499Y-70953947D01*
X134349500Y-70953947D01*
X134349500Y-71186052D01*
X134379794Y-71416148D01*
X134439862Y-71640328D01*
X134528677Y-71854745D01*
X134528685Y-71854762D01*
X134644720Y-72055743D01*
X134644721Y-72055745D01*
X134786009Y-72239875D01*
X134786015Y-72239882D01*
X134950117Y-72403984D01*
X134950124Y-72403990D01*
X135134254Y-72545278D01*
X135134256Y-72545279D01*
X135335237Y-72661314D01*
X135335240Y-72661315D01*
X135335248Y-72661320D01*
X135549670Y-72750137D01*
X135773851Y-72810206D01*
X135977993Y-72837082D01*
X136000149Y-72839999D01*
X136003955Y-72840500D01*
X136003962Y-72840500D01*
X136236038Y-72840500D01*
X136236045Y-72840500D01*
X136466149Y-72810206D01*
X136690330Y-72750137D01*
X136904752Y-72661320D01*
X137105748Y-72545276D01*
X137289877Y-72403989D01*
X137453989Y-72239877D01*
X137595276Y-72055748D01*
X137606906Y-72035605D01*
X137711314Y-71854762D01*
X137711320Y-71854752D01*
X137800137Y-71640330D01*
X137860206Y-71416149D01*
X137890500Y-71186045D01*
X137890500Y-70953955D01*
X137860206Y-70723851D01*
X137800137Y-70499670D01*
X137711320Y-70285248D01*
X137711314Y-70285237D01*
X137595279Y-70084256D01*
X137595278Y-70084254D01*
X137453990Y-69900124D01*
X137453984Y-69900117D01*
X137289882Y-69736015D01*
X137289875Y-69736009D01*
X137105745Y-69594721D01*
X137105743Y-69594720D01*
X136904762Y-69478685D01*
X136904754Y-69478681D01*
X136904752Y-69478680D01*
X136904745Y-69478677D01*
X136690328Y-69389862D01*
X136538443Y-69349165D01*
X136466149Y-69329794D01*
X136437386Y-69326007D01*
X136236052Y-69299500D01*
X136236045Y-69299500D01*
X136003955Y-69299500D01*
X136003947Y-69299500D01*
X135773851Y-69329794D01*
X135549671Y-69389862D01*
X135335254Y-69478677D01*
X135335237Y-69478685D01*
X135134256Y-69594720D01*
X135134254Y-69594721D01*
X134950124Y-69736009D01*
X134950117Y-69736015D01*
X134786015Y-69900117D01*
X134786009Y-69900124D01*
X134644721Y-70084254D01*
X134644720Y-70084256D01*
X134528685Y-70285237D01*
X134528677Y-70285254D01*
X134439862Y-70499671D01*
X134379794Y-70723851D01*
X134349500Y-70953947D01*
X132810499Y-70953947D01*
X132780206Y-70723851D01*
X132720137Y-70499670D01*
X132631320Y-70285248D01*
X132631314Y-70285237D01*
X132515279Y-70084256D01*
X132515278Y-70084254D01*
X132373990Y-69900124D01*
X132373984Y-69900117D01*
X132209882Y-69736015D01*
X132209875Y-69736009D01*
X132025745Y-69594721D01*
X132025743Y-69594720D01*
X131824762Y-69478685D01*
X131824754Y-69478681D01*
X131824752Y-69478680D01*
X131824745Y-69478677D01*
X131610328Y-69389862D01*
X131458443Y-69349165D01*
X131386149Y-69329794D01*
X131357386Y-69326007D01*
X131156052Y-69299500D01*
X131156045Y-69299500D01*
X130923955Y-69299500D01*
X130923947Y-69299500D01*
X130693851Y-69329794D01*
X130469671Y-69389862D01*
X130255254Y-69478677D01*
X130255237Y-69478685D01*
X130054256Y-69594720D01*
X130054254Y-69594721D01*
X129870124Y-69736009D01*
X129870117Y-69736015D01*
X129706015Y-69900117D01*
X129706009Y-69900124D01*
X129564721Y-70084254D01*
X129564720Y-70084256D01*
X129448685Y-70285237D01*
X129448677Y-70285254D01*
X129359862Y-70499671D01*
X129299794Y-70723851D01*
X129269500Y-70953947D01*
X127730499Y-70953947D01*
X127700206Y-70723851D01*
X127640137Y-70499670D01*
X127551320Y-70285248D01*
X127551314Y-70285237D01*
X127435279Y-70084256D01*
X127435278Y-70084254D01*
X127293990Y-69900124D01*
X127293984Y-69900117D01*
X127129882Y-69736015D01*
X127129875Y-69736009D01*
X126945745Y-69594721D01*
X126945743Y-69594720D01*
X126744762Y-69478685D01*
X126744754Y-69478681D01*
X126744752Y-69478680D01*
X126744745Y-69478677D01*
X126530328Y-69389862D01*
X126378443Y-69349165D01*
X126306149Y-69329794D01*
X126277386Y-69326007D01*
X126076052Y-69299500D01*
X126076045Y-69299500D01*
X125843955Y-69299500D01*
X125843947Y-69299500D01*
X125613851Y-69329794D01*
X125389671Y-69389862D01*
X125175254Y-69478677D01*
X125175237Y-69478685D01*
X124974256Y-69594720D01*
X124974254Y-69594721D01*
X124790124Y-69736009D01*
X124790117Y-69736015D01*
X124626015Y-69900117D01*
X124626009Y-69900124D01*
X124484721Y-70084254D01*
X124484720Y-70084256D01*
X124368685Y-70285237D01*
X124368677Y-70285254D01*
X124279862Y-70499671D01*
X124219794Y-70723851D01*
X124189500Y-70953947D01*
X122649999Y-70953947D01*
X122649999Y-70104394D01*
X122649998Y-70104390D01*
X122647082Y-70061367D01*
X122647082Y-70061365D01*
X122600834Y-69875397D01*
X122543584Y-69759966D01*
X121280000Y-71023550D01*
X121280000Y-71017339D01*
X121252741Y-70915606D01*
X121200080Y-70824394D01*
X121125606Y-70749920D01*
X121034394Y-70697259D01*
X120932661Y-70670000D01*
X120926449Y-70670000D01*
X122190033Y-69406414D01*
X122074602Y-69349165D01*
X121888638Y-69302918D01*
X121888642Y-69302918D01*
X121845604Y-69300000D01*
X119914394Y-69300000D01*
X119914390Y-69300001D01*
X119871367Y-69302917D01*
X119871365Y-69302917D01*
X119685397Y-69349165D01*
X119685396Y-69349166D01*
X119569965Y-69406414D01*
X120833552Y-70670000D01*
X120827339Y-70670000D01*
X120725606Y-70697259D01*
X120634394Y-70749920D01*
X120559920Y-70824394D01*
X120507259Y-70915606D01*
X120480000Y-71017339D01*
X120480000Y-71023551D01*
X119216414Y-69759965D01*
X119159166Y-69875396D01*
X119159165Y-69875397D01*
X119112918Y-70061359D01*
X119110000Y-70104395D01*
X113300500Y-70104395D01*
X113300500Y-67424500D01*
X113320185Y-67357461D01*
X113372989Y-67311706D01*
X113424500Y-67300500D01*
X192575500Y-67300500D01*
X192642539Y-67320185D01*
G37*
%TD.AperFunction*%
%TD*%
M02*
