%TF.GenerationSoftware,KiCad,Pcbnew,9.0.1-9.0.1-0~ubuntu24.04.1*%
%TF.CreationDate,2025-04-28T14:38:04+02:00*%
%TF.ProjectId,build_a_kicad_project_schematic,6275696c-645f-4615-9f6b-696361645f70,rev?*%
%TF.SameCoordinates,Original*%
%TF.FileFunction,Soldermask,Bot*%
%TF.FilePolarity,Negative*%
%FSLAX46Y46*%
G04 Gerber Fmt 4.6, Leading zero omitted, Abs format (unit mm)*
G04 Created by KiCad (PCBNEW 9.0.1-9.0.1-0~ubuntu24.04.1) date 2025-04-28 14:38:04*
%MOMM*%
%LPD*%
G01*
G04 APERTURE LIST*
G04 Aperture macros list*
%AMRoundRect*
0 Rectangle with rounded corners*
0 $1 Rounding radius*
0 $2 $3 $4 $5 $6 $7 $8 $9 X,Y pos of 4 corners*
0 Add a 4 corners polygon primitive as box body*
4,1,4,$2,$3,$4,$5,$6,$7,$8,$9,$2,$3,0*
0 Add four circle primitives for the rounded corners*
1,1,$1+$1,$2,$3*
1,1,$1+$1,$4,$5*
1,1,$1+$1,$6,$7*
1,1,$1+$1,$8,$9*
0 Add four rect primitives between the rounded corners*
20,1,$1+$1,$2,$3,$4,$5,0*
20,1,$1+$1,$4,$5,$6,$7,0*
20,1,$1+$1,$6,$7,$8,$9,0*
20,1,$1+$1,$8,$9,$2,$3,0*%
G04 Aperture macros list end*
%ADD10RoundRect,0.381000X-0.889000X-0.889000X0.889000X-0.889000X0.889000X0.889000X-0.889000X0.889000X0*%
%ADD11C,2.540000*%
%ADD12R,1.800000X1.800000*%
%ADD13C,1.800000*%
%ADD14RoundRect,0.190500X-0.444500X-0.444500X0.444500X-0.444500X0.444500X0.444500X-0.444500X0.444500X0*%
%ADD15C,1.270000*%
%ADD16C,2.000000*%
%ADD17C,2.400000*%
%ADD18O,2.400000X2.400000*%
%ADD19C,1.600000*%
%ADD20R,1.600000X1.600000*%
%ADD21O,1.600000X1.600000*%
G04 APERTURE END LIST*
D10*
%TO.C,U2*%
X120880000Y-71070000D03*
D11*
X125960000Y-71070000D03*
X131040000Y-71070000D03*
X136120000Y-71070000D03*
%TD*%
D12*
%TO.C,D1*%
X185460000Y-75500000D03*
D13*
X188000000Y-75500000D03*
%TD*%
D14*
%TO.C,U1*%
X116420000Y-102920000D03*
D15*
X118960000Y-102920000D03*
X121500000Y-102920000D03*
X124040000Y-102920000D03*
X126580000Y-102920000D03*
%TD*%
D16*
%TO.C,UP*%
X188000000Y-94000000D03*
X188000000Y-100500000D03*
X183500000Y-94000000D03*
X183500000Y-100500000D03*
%TD*%
D17*
%TO.C,R3*%
X177000000Y-106000000D03*
D18*
X177000000Y-111080000D03*
%TD*%
D17*
%TO.C,R2*%
X177000000Y-94760000D03*
D18*
X177000000Y-99840000D03*
%TD*%
D16*
%TO.C,DOWN*%
X188250000Y-105240000D03*
X188250000Y-111740000D03*
X183750000Y-105240000D03*
X183750000Y-111740000D03*
%TD*%
D19*
%TO.C,C2*%
X171000000Y-99000000D03*
X171000000Y-101500000D03*
%TD*%
D16*
%TO.C,MENU*%
X188000000Y-83500000D03*
X188000000Y-90000000D03*
X183500000Y-83500000D03*
X183500000Y-90000000D03*
%TD*%
D17*
%TO.C,R1*%
X177000000Y-84760000D03*
D18*
X177000000Y-89840000D03*
%TD*%
D20*
%TO.C,A1*%
X163000000Y-111000000D03*
D21*
X163000000Y-108460000D03*
X163000000Y-105920000D03*
X163000000Y-103380000D03*
X163000000Y-100840000D03*
X163000000Y-98300000D03*
X163000000Y-95760000D03*
X163000000Y-93220000D03*
X163000000Y-90680000D03*
X163000000Y-88140000D03*
X163000000Y-85600000D03*
X163000000Y-83060000D03*
X163000000Y-80520000D03*
X163000000Y-77980000D03*
X163000000Y-75440000D03*
X147760000Y-75440000D03*
X147760000Y-77980000D03*
X147760000Y-80520000D03*
X147760000Y-83060000D03*
X147760000Y-85600000D03*
X147760000Y-88140000D03*
X147760000Y-90680000D03*
X147760000Y-93220000D03*
X147760000Y-95760000D03*
X147760000Y-98300000D03*
X147760000Y-100840000D03*
X147760000Y-103380000D03*
X147760000Y-105920000D03*
X147760000Y-108460000D03*
X147760000Y-111000000D03*
%TD*%
D19*
%TO.C,C1*%
X171000000Y-90500000D03*
X171000000Y-93000000D03*
%TD*%
%TO.C,C3*%
X171000000Y-113000000D03*
X171000000Y-110500000D03*
%TD*%
D17*
%TO.C,R4*%
X173500000Y-75500000D03*
D18*
X178580000Y-75500000D03*
%TD*%
M02*
