M48
; DRILL file {KiCad 9.0.1-9.0.1-0~ubuntu24.04.1} date 2025-04-28T14:38:02+0200
; FORMAT={-:-/ absolute / metric / decimal}
; #@! TF.CreationDate,2025-04-28T14:38:02+02:00
; #@! TF.GenerationSoftware,Kicad,Pcbnew,9.0.1-9.0.1-0~ubuntu24.04.1
; #@! TF.FileFunction,Plated,1,2,PTH
FMAT,2
METRIC
; #@! TA.AperFunction,Plated,PTH,ViaDrill
T1C0.300
; #@! TA.AperFunction,Plated,PTH,ComponentDrill
T2C0.800
; #@! TA.AperFunction,Plated,PTH,ComponentDrill
T3C0.900
; #@! TA.AperFunction,Plated,PTH,ComponentDrill
T4C1.000
; #@! TA.AperFunction,Plated,PTH,ComponentDrill
T5C1.100
; #@! TA.AperFunction,Plated,PTH,ComponentDrill
T6C1.200
%
G90
G05
T1
X131.1Y-95.8
X136.1Y-93.2
X168.05Y-95.7
X168.7Y-100.8
T2
X116.42Y-102.92
X118.96Y-102.92
X120.88Y-71.07
X121.5Y-102.92
X124.04Y-102.92
X125.96Y-71.07
X126.58Y-102.92
X131.04Y-71.07
X136.12Y-71.07
X171.0Y-90.5
X171.0Y-93.0
X171.0Y-99.0
X171.0Y-101.5
X171.0Y-110.5
X171.0Y-113.0
T3
X185.46Y-75.5
X188.0Y-75.5
T4
X147.76Y-75.44
X147.76Y-77.98
X147.76Y-80.52
X147.76Y-83.06
X147.76Y-85.6
X147.76Y-88.14
X147.76Y-90.68
X147.76Y-93.22
X147.76Y-95.76
X147.76Y-98.3
X147.76Y-100.84
X147.76Y-103.38
X147.76Y-105.92
X147.76Y-108.46
X147.76Y-111.0
X163.0Y-75.44
X163.0Y-77.98
X163.0Y-80.52
X163.0Y-83.06
X163.0Y-85.6
X163.0Y-88.14
X163.0Y-90.68
X163.0Y-93.22
X163.0Y-95.76
X163.0Y-98.3
X163.0Y-100.84
X163.0Y-103.38
X163.0Y-105.92
X163.0Y-108.46
X163.0Y-111.0
T5
X183.5Y-83.5
X183.5Y-90.0
X183.5Y-94.0
X183.5Y-100.5
X183.75Y-105.24
X183.75Y-111.74
X188.0Y-83.5
X188.0Y-90.0
X188.0Y-94.0
X188.0Y-100.5
X188.25Y-105.24
X188.25Y-111.74
T6
X173.5Y-75.5
X177.0Y-84.76
X177.0Y-89.84
X177.0Y-94.76
X177.0Y-99.84
X177.0Y-106.0
X177.0Y-111.08
X178.58Y-75.5
M30
